<svg width="48" height="50" viewBox="0 0 48 50" fill="none" xmlns="http://www.w3.org/2000/svg">
<path d="M40.8776 46.6624V47.4996C40.8776 48.8762 39.7507 50 38.3708 50H9.37564C7.99521 50 6.86833 48.8762 6.86833 47.4996V46.7467C5.96683 46.3871 5.43156 45.5105 5.25126 44.5885L1.7523 26.6143C0.65359 26.6143 0 25.5861 0 24.5803V21.0067C0 20.029 0.647956 18.9727 1.71849 18.9727H10.4462L20.3796 0.447326C20.5994 0.0371495 21.1065 -0.11456 21.5178 0.0989567C21.9291 0.318092 22.0812 0.823789 21.8671 1.23397L12.3562 18.9671H35.6432L26.1323 1.23397C25.912 0.823789 26.0709 0.318092 26.4817 0.0989567C26.8924 -0.120179 27.4001 0.0371495 27.6204 0.447326L37.5533 18.9727H46.2809C47.3571 18.9727 48 20.0403 48 21.0067V24.5803C48 25.558 47.352 26.6143 46.2809 26.6143H45.8077L42.3087 44.5885C42.1847 45.2184 41.9087 45.8022 41.4804 46.2236C41.3001 46.4034 41.0973 46.5495 40.8719 46.668L40.8776 46.6624ZM30.9779 28.2269C30.9779 27.7606 31.3554 27.3841 31.8231 27.3841C32.2907 27.3841 32.6682 27.7606 32.6682 28.2269V41.7459C32.6682 42.2123 32.2907 42.5887 31.8231 42.5887C31.3554 42.5887 30.9779 42.2123 30.9779 41.7459V28.2269ZM25.5526 28.2269C25.5526 27.7606 25.9301 27.3841 26.3977 27.3841C26.8648 27.3841 27.2429 27.7606 27.2429 28.2269V41.7459C27.2429 42.2123 26.8648 42.5887 26.3977 42.5887C25.9301 42.5887 25.5526 42.2123 25.5526 41.7459V28.2269ZM20.2106 28.2269C20.2106 27.7606 20.5881 27.3841 21.0557 27.3841C21.5234 27.3841 21.9009 27.7606 21.9009 28.2269V41.7459C21.9009 42.2123 21.5234 42.5887 21.0557 42.5887C20.5881 42.5887 20.2106 42.2123 20.2106 41.7459V28.2269ZM14.8974 28.2269C14.8974 27.7606 15.2749 27.3841 15.7425 27.3841C16.2102 27.3841 16.5877 27.7606 16.5877 28.2269V41.7459C16.5877 42.2123 16.2102 42.5887 15.7425 42.5887C15.2749 42.5887 14.8974 42.2123 14.8974 41.7459V28.2269ZM38.8323 21.3495C39.469 21.518 39.9422 22.0968 39.9422 22.7823C39.9422 23.6026 39.2774 24.2656 38.4548 24.2656C37.6321 24.2656 36.9673 23.6026 36.9673 22.7823C36.9673 22.4676 37.0631 22.1754 37.2321 21.9338L36.5396 20.6415H11.4491L10.7617 21.9282C10.9307 22.1698 11.0322 22.462 11.0322 22.7767C11.0322 23.597 10.3673 24.26 9.54467 24.26C8.72205 24.26 8.05719 23.597 8.05719 22.7767C8.05719 22.0912 8.52484 21.5124 9.16153 21.3438L9.53904 20.6415H2.05656C1.72413 20.6415 1.69595 20.7145 1.68468 20.9899V24.564C1.68468 24.8893 1.70159 24.9118 1.92133 24.9118H46.0105C46.2809 24.9118 46.3097 24.9792 46.3097 24.564V20.9899C46.3097 20.5347 46.2866 20.6415 45.8189 20.6415H38.4548L38.8323 21.3438V21.3495ZM3.47079 26.6031L6.91341 44.2631C6.99229 44.6789 7.2402 45.2189 7.73603 45.2245L11.6407 45.2526C11.6407 45.8145 11.635 46.3702 11.635 46.9321C10.6096 46.9265 9.58411 46.9209 8.55865 46.9102V47.494C8.55865 47.9384 8.92489 48.3093 9.37564 48.3093H38.3708C38.8154 48.3093 39.1872 47.9441 39.1872 47.494V46.9096C31.8913 46.9658 24.5885 46.9827 17.292 46.9602V45.2802C24.8032 45.3026 32.3189 45.2914 39.8296 45.224C40.0093 45.224 40.1676 45.1447 40.291 45.0273C40.4713 44.8475 40.5953 44.5716 40.6567 44.2682L44.0999 26.6076H3.48206L3.47079 26.6031Z" fill="#564F4D"/>
</svg>
