<svg width="59" height="63" viewBox="0 0 59 63" fill="none" xmlns="http://www.w3.org/2000/svg">
<rect width="58" height="62" fill="black" fill-opacity="0" transform="translate(1 1)"/>
<rect width="32.0038" height="44.0284" fill="black" fill-opacity="0" transform="translate(12.0358 17.5106)"/>
<path d="M44.0263 41.3992C44.0983 41.0502 43.8698 40.7096 43.5151 40.6384C43.1608 40.5672 42.815 40.7926 42.743 41.1416C42.2417 43.5659 40.0517 45.3253 37.5357 45.3253C34.6053 45.3253 32.2212 42.977 32.2212 40.0905C32.2212 37.2041 34.6053 34.8558 37.5357 34.8558C40.0408 34.8558 42.2291 36.6065 42.7386 39.018C42.8123 39.3667 43.1591 39.5904 43.5131 39.5182C43.8671 39.4456 44.0945 39.104 44.0205 38.7553C43.4919 36.2518 41.5126 34.3213 39.0627 33.7446C39.5392 32.4745 39.7809 31.1396 39.7809 29.7654C39.7809 29.0707 39.7182 28.3905 39.5978 27.7295C41.3162 26.7409 42.3884 24.8977 42.3614 22.9189C42.3413 21.4547 41.7439 20.0859 40.6785 19.0647C39.6135 18.0432 38.2109 17.4916 36.722 17.5111C35.2177 17.5313 33.7943 18.149 32.7641 19.2162C31.3338 18.6001 29.7559 18.2572 28.0979 18.2572C26.4808 18.2572 24.9175 18.5776 23.4791 19.1873C22.4325 18.1178 20.9982 17.5108 19.4755 17.5108C16.407 17.5108 13.9104 19.97 13.9104 22.9925C13.9104 24.9401 14.9324 26.7009 16.6058 27.6898C16.4796 28.3707 16.4145 29.065 16.4145 29.7654C16.4145 31.1389 16.6563 32.4735 17.132 33.7432C14.2139 34.4244 12.0358 37.0109 12.0358 40.0905C12.0358 43.4426 14.6159 46.2111 17.9221 46.5739L17.7752 47.3321C17.652 47.9656 17.5893 48.6075 17.5862 49.2457C15.4866 50.3415 14.0522 52.5155 14.0522 55.0146C14.0522 58.6122 17.0235 61.539 20.6759 61.539C22.6446 61.539 24.4142 60.6881 25.6285 59.3408C26.432 59.5306 27.2607 59.627 28.0975 59.627C28.9344 59.627 29.7631 59.5306 30.5669 59.3408C31.7813 60.6878 33.5508 61.539 35.5192 61.539C39.1719 61.539 42.1432 58.6122 42.1432 55.0143C42.1432 52.5155 40.7089 50.3415 38.6095 49.2457C38.6061 48.6075 38.5434 47.9652 38.4203 47.3321L38.2729 46.5729C41.0908 46.2605 43.4507 44.1819 44.0263 41.3992V41.3992ZM36.7394 18.801C37.8746 18.7859 38.9505 19.2078 39.7649 19.9888C40.5796 20.7698 41.0366 21.8165 41.0519 22.9364C41.0707 24.3173 40.3893 25.6119 39.2714 26.4023C38.4066 23.6203 36.4983 21.2834 33.9976 19.8363C34.7533 19.186 35.7221 18.8144 36.7394 18.801V18.801ZM17.724 29.7654C17.724 27.8306 18.2754 25.9475 19.3183 24.3196C19.5116 24.0183 19.4199 23.62 19.1144 23.4298C18.8085 23.2397 18.404 23.3297 18.211 23.631C17.6636 24.4859 17.2377 25.4033 16.9376 26.3596C15.8631 25.5773 15.2199 24.3432 15.2199 22.9925C15.2199 20.6811 17.1293 18.8007 19.4758 18.8007C20.5003 18.8007 21.4725 19.1601 22.2371 19.8037C21.3317 20.3227 20.4914 20.9663 19.7381 21.7261C19.4854 21.9811 19.4905 22.3895 19.749 22.6381C20.0075 22.887 20.4222 22.8823 20.6749 22.6273C22.6439 20.6411 25.28 19.5474 28.0979 19.5474C33.8178 19.5474 38.4714 24.1312 38.4714 29.7654C38.4714 31.0845 38.2211 32.3623 37.7276 33.5702C37.6639 33.5685 37.6001 33.5659 37.5357 33.5659C34.0521 33.5659 31.1899 36.2296 30.9328 39.5974C30.0144 39.8537 29.063 39.9834 28.0979 39.9834C27.1328 39.9834 26.181 39.8537 25.263 39.5974C25.0058 36.2296 22.1436 33.5659 18.6598 33.5659C18.5957 33.5659 18.5319 33.5689 18.4681 33.5709C17.9747 32.3626 17.724 31.0848 17.724 29.7654V29.7654ZM13.3453 40.0905C13.3453 37.2044 15.7294 34.8561 18.6598 34.8561C21.5902 34.8561 23.9742 37.2044 23.9742 40.0905C23.9742 42.977 21.5902 45.3253 18.6598 45.3253C15.7294 45.3253 13.3453 42.977 13.3453 40.0905ZM20.6762 60.2491C17.7458 60.2491 15.3617 57.9007 15.3617 55.0143C15.3617 52.1282 17.7458 49.7795 20.6762 49.7795C23.6063 49.7795 25.9904 52.1278 25.9904 55.0143C25.9904 57.9007 23.6063 60.2491 20.6762 60.2491ZM40.8337 55.0143C40.8337 57.9007 38.4496 60.2491 35.5192 60.2491C32.5891 60.2491 30.2051 57.9007 30.2051 55.0143C30.2051 52.1282 32.5891 49.7795 35.5192 49.7795C38.4496 49.7795 40.8337 52.1282 40.8337 55.0143ZM35.5192 48.4896C31.8668 48.4896 28.8955 51.4167 28.8955 55.0143C28.8955 56.1681 29.2024 57.2521 29.7379 58.1933C29.1997 58.2881 28.651 58.3368 28.0979 58.3368C27.5444 58.3368 26.9957 58.2881 26.4576 58.1933C26.9933 57.2521 27.3002 56.1681 27.3002 55.0143C27.3002 51.4167 24.3286 48.4896 20.6762 48.4896C20.0661 48.4896 19.4755 48.5732 18.9142 48.7261C18.9387 48.3411 18.9875 47.9558 19.0615 47.5743L19.2528 46.5877C22.3486 46.3159 24.837 43.9377 25.2282 40.9216C26.1622 41.154 27.1239 41.2733 28.0979 41.2733C29.0718 41.2733 30.0335 41.154 30.9676 40.9216C31.3587 43.9377 33.8472 46.3159 36.943 46.5877L37.1343 47.5743C37.2083 47.9558 37.257 48.3411 37.2816 48.7261C36.7199 48.5732 36.1296 48.4896 35.5192 48.4896V48.4896Z" fill="#564F4D"/>
<path d="M25.9785 30.9615C26.7601 30.9615 27.5008 30.6999 28.0979 30.2188C28.6947 30.6999 29.4358 30.9615 30.2174 30.9615C30.5789 30.9615 30.8722 30.6727 30.8722 30.3166C30.8722 29.9605 30.5789 29.6717 30.2174 29.6717C29.6711 29.6717 29.1575 29.462 28.7711 29.0818L28.5607 28.8745C28.4379 28.7533 28.2715 28.6854 28.0976 28.6854C27.924 28.6854 27.7576 28.7536 27.6348 28.8745L27.4244 29.0818C27.0384 29.462 26.5248 29.6717 25.9785 29.6717C25.6167 29.6717 25.3237 29.9605 25.3237 30.3166C25.3237 30.6727 25.6167 30.9615 25.9785 30.9615Z" fill="#564F4D"/>
<path d="M33.6581 29.9756C34.0195 29.9756 34.3128 29.6867 34.3128 29.3307V28.3542C34.3128 27.9981 34.0195 27.7092 33.6581 27.7092C33.2966 27.7092 33.0033 27.9981 33.0033 28.3542V29.3307C33.0033 29.6867 33.2966 29.9756 33.6581 29.9756Z" fill="#564F4D"/>
<path d="M22.5376 29.9756C22.8991 29.9756 23.1923 29.6867 23.1923 29.3307V28.3542C23.1923 27.9981 22.8991 27.7092 22.5376 27.7092C22.1761 27.7092 21.8828 27.9981 21.8828 28.3542V29.3307C21.8828 29.6867 22.1761 29.9756 22.5376 29.9756Z" fill="#564F4D"/>
<path d="M33.1621 31.8215H34.1534C34.5153 31.8215 34.8082 31.5326 34.8082 31.1766C34.8082 30.8205 34.5153 30.5316 34.1534 30.5316H33.1621C32.8006 30.5316 32.5073 30.8205 32.5073 31.1766C32.5073 31.5326 32.8006 31.8215 33.1621 31.8215V31.8215Z" fill="#564F4D"/>
<path d="M22.0417 31.8215H23.0331C23.3949 31.8215 23.6878 31.5326 23.6878 31.1766C23.6878 30.8205 23.3949 30.5316 23.0331 30.5316H22.0417C21.6802 30.5316 21.387 30.8205 21.387 31.1766C21.387 31.5326 21.6802 31.8215 22.0417 31.8215Z" fill="#564F4D"/>
<path d="M45.3998 23.0142H53.4477C53.7371 23.0142 53.9718 22.7795 53.9718 22.49C53.9718 22.2005 53.7371 21.9659 53.4477 21.9659H45.3998C45.1103 21.9659 44.8756 22.2005 44.8756 22.49C44.8756 22.7795 45.1103 23.0142 45.3998 23.0142Z" fill="#FD8800" stroke="#FD8800"/>
<path d="M1.52418 23.0142H9.57204C9.86152 23.0142 10.0962 22.7795 10.0962 22.49C10.0962 22.2005 9.86152 21.9659 9.57204 21.9659H1.52418C1.2347 21.9659 1.00003 22.2005 1.00003 22.49C1.00003 22.7795 1.2347 23.0142 1.52418 23.0142Z" fill="#FD8800" stroke="#FD8800"/>
<path d="M8.33433 6.82926L14.0096 12.3887C14.2185 12.5934 14.5573 12.5934 14.7663 12.3887C14.9752 12.184 14.9752 11.8521 14.7663 11.6474L9.09103 6.08801C8.88207 5.88331 8.54329 5.88331 8.33433 6.088C8.12537 6.2927 8.12537 6.62457 8.33433 6.82926Z" fill="#FD8800" stroke="#FD8800"/>
<path d="M45.0436 6.08805L39.3683 11.6475C39.1594 11.8522 39.1594 12.1841 39.3683 12.3888C39.5773 12.5935 39.9161 12.5935 40.125 12.3888L45.8003 6.82931C46.0093 6.62462 46.0093 6.29275 45.8003 6.08805C45.5913 5.88336 45.2526 5.88336 45.0436 6.08805Z" fill="#FD8800" stroke="#FD8800"/>
<path d="M27.2184 9.37547V1.53507C27.2184 1.23956 27.4579 1 27.7535 1C28.049 1 28.2885 1.23956 28.2885 1.53507V9.37547C28.2885 9.67098 28.049 9.91054 27.7535 9.91054C27.4579 9.91054 27.2184 9.67098 27.2184 9.37547Z" fill="#FD8800" stroke="#FD8800"/>
<rect width="22.2069" height="11.169" fill="black" fill-opacity="0" transform="matrix(-0.547399 -0.836872 0.843933 -0.536449 49.5742 63.0001)"/>
<rect width="22.2069" height="11.169" fill="black" fill-opacity="0" transform="matrix(-0.547399 -0.836872 0.843933 -0.536449 49.5742 63.0001)"/>
<path d="M48.7454 61.733C49.1998 62.4277 50.1549 62.631 50.8596 62.1831L57.7148 57.8256C58.4194 57.3776 58.6257 56.4361 58.1713 55.7414L49.3307 42.2258C49.2893 42.1624 49.2339 42.109 49.1688 42.0695C49.1036 42.0301 49.0303 42.0056 48.9542 41.9979L42.4595 41.3425C42.3443 41.3308 42.2285 41.3581 42.1312 41.42C42.0338 41.4819 41.9607 41.5746 41.924 41.6829L39.8496 47.7853C39.8254 47.8567 39.8177 47.9327 39.8273 48.0075C39.8368 48.0823 39.8633 48.154 39.9048 48.2174L48.7454 61.733ZM43.8088 47.2307C44.3396 48.0421 45.4522 48.279 46.2754 47.7557C47.0985 47.2325 47.3387 46.1357 46.808 45.3243C46.2772 44.5128 45.1646 44.276 44.3415 44.7992C43.5184 45.3224 43.2781 46.4193 43.8088 47.2307ZM44.6657 46.686C44.4336 46.3311 44.534 45.8728 44.894 45.6439C45.254 45.4151 45.719 45.5141 45.9511 45.869C46.1832 46.2239 46.0828 46.6822 45.7228 46.911C45.3628 47.1399 44.8979 47.0409 44.6657 46.686Z" fill="#FD8800"/>
<ellipse cx="44.6369" cy="45.5406" rx="1.44378" ry="1.42328" fill="white"/>
<path d="M53.4317 52.2548C52.78 51.2915 51.4926 50.9839 50.4712 51.5018L49.8966 50.6526C49.8884 50.6391 49.8795 50.626 49.8701 50.6134C49.8303 50.5602 49.7803 50.5152 49.723 50.481C49.6656 50.4469 49.6019 50.4242 49.5357 50.4143C49.4694 50.4044 49.4018 50.4075 49.3367 50.4233C49.2716 50.4392 49.2104 50.4675 49.1564 50.5067C49.1025 50.5459 49.0569 50.5952 49.0222 50.6518C48.9876 50.7083 48.9646 50.7711 48.9546 50.8364C48.9445 50.9018 48.9476 50.9684 48.9637 51.0325C48.9798 51.0967 49.0086 51.1571 49.0484 51.2103L49.6141 52.0465L48.7659 52.6042L48.2001 51.768C48.1919 51.7545 48.1831 51.7414 48.1736 51.7288C48.1339 51.6756 48.0839 51.6306 48.0265 51.5965C47.9691 51.5623 47.9055 51.5396 47.8392 51.5297C47.7729 51.5198 47.7053 51.5229 47.6402 51.5387C47.5752 51.5546 47.5139 51.5829 47.4599 51.6221C47.406 51.6613 47.3604 51.7106 47.3257 51.7672C47.2911 51.8238 47.2681 51.8865 47.2581 51.9518C47.248 52.0172 47.2512 52.0838 47.2673 52.148C47.2834 52.2121 47.3121 52.2725 47.3519 52.3257L47.922 53.1684C47.0384 53.8979 46.8406 55.1928 47.4941 56.1587L49.1913 58.6673C49.228 58.7232 49.2756 58.7714 49.3313 58.809C49.3871 58.8467 49.4498 58.873 49.516 58.8865C49.5821 58.9 49.6504 58.9004 49.7167 58.8877C49.783 58.875 49.8461 58.8494 49.9023 58.8125C49.9585 58.7755 50.0067 58.7279 50.0441 58.6725C50.0815 58.617 50.1073 58.5547 50.1201 58.4893C50.1328 58.4239 50.1323 58.3567 50.1185 58.2915C50.1046 58.2263 50.0778 58.1645 50.0395 58.1096L48.3423 55.601C47.9937 55.0857 48.069 54.4338 48.4966 54.0177L49.6149 55.6704C49.6515 55.7264 49.6991 55.7746 49.7549 55.8122C49.8106 55.8498 49.8734 55.8762 49.9396 55.8897C50.0057 55.9032 50.0739 55.9036 50.1402 55.8909C50.2066 55.8782 50.2697 55.8526 50.3259 55.8156C50.3821 55.7787 50.4303 55.7311 50.4677 55.6756C50.505 55.6201 50.5309 55.5579 50.5436 55.4925C50.5564 55.4271 50.5559 55.3598 50.542 55.2946C50.5282 55.2295 50.5014 55.1676 50.4631 55.1127L49.3316 53.4404L50.1798 52.8826L51.3113 54.555C51.348 54.611 51.3956 54.6591 51.4514 54.6968C51.5071 54.7344 51.5699 54.7607 51.636 54.7743C51.7022 54.7878 51.7704 54.7882 51.8367 54.7755C51.903 54.7628 51.9661 54.7372 52.0224 54.7002C52.0786 54.6633 52.1268 54.6157 52.1641 54.5602C52.2015 54.5047 52.2273 54.4425 52.2401 54.3771C52.2529 54.3117 52.2523 54.2444 52.2385 54.1792C52.2247 54.114 52.1979 54.0522 52.1596 53.9973L51.0413 52.3445C51.5937 52.1198 52.2364 52.2995 52.5835 52.8125L54.2807 55.3211C54.3174 55.377 54.365 55.4252 54.4208 55.4628C54.4765 55.5004 54.5393 55.5268 54.6054 55.5403C54.6716 55.5538 54.7398 55.5542 54.8061 55.5415C54.8724 55.5288 54.9355 55.5032 54.9917 55.4663C55.048 55.4293 55.0962 55.3817 55.1335 55.3262C55.1709 55.2707 55.1967 55.2085 55.2095 55.1431C55.2223 55.0777 55.2217 55.0104 55.2079 54.9453C55.1941 54.8801 55.1672 54.8182 55.129 54.7633L53.4317 52.2548Z" fill="white"/>
</svg>
