<svg width="33" height="45" viewBox="0 0 33 45" fill="none" xmlns="http://www.w3.org/2000/svg">
<rect width="32" height="44.03" fill="black" fill-opacity="0" transform="translate(0.750488 0.571533)"/>
<path d="M32.7372 24.4611C32.8092 24.112 32.5807 23.7714 32.2261 23.7002C31.8718 23.629 31.5261 23.8544 31.4541 24.2034C30.9529 26.6277 28.7631 28.3873 26.2474 28.3873C23.3173 28.3873 20.9335 26.0389 20.9335 23.1523C20.9335 20.2657 23.3173 17.9173 26.2474 17.9173C28.7522 17.9173 30.9403 19.6681 31.4497 22.0797C31.5234 22.4284 31.8701 22.6521 32.2241 22.5799C32.578 22.5073 32.8054 22.1657 32.7315 21.817C32.2029 19.3134 30.2239 17.3829 27.7743 16.8061C28.2506 15.536 28.4924 14.201 28.4924 12.8268C28.4924 12.1321 28.4296 11.4518 28.3093 10.7907C30.0275 9.80213 31.0995 7.95893 31.0726 5.98002C31.0525 4.51574 30.4551 3.14687 29.3898 2.12567C28.325 1.10413 26.9225 0.552549 25.4338 0.572032C23.9297 0.592187 22.5064 1.20995 21.4763 2.27717C20.0463 1.66109 18.4686 1.31811 16.8107 1.31811C15.1938 1.31811 13.6307 1.63858 12.1925 2.24828C11.146 1.17871 9.71181 0.571696 8.18933 0.571696C5.12118 0.571696 2.62486 3.03097 2.62486 6.05359C2.62486 8.00126 3.64678 9.76216 5.31998 10.7511C5.19381 11.432 5.12869 12.1264 5.12869 12.8268C5.12869 14.2003 5.37044 15.535 5.84611 16.8047C2.92833 17.486 0.750488 20.0726 0.750488 23.1523C0.750488 26.5045 3.33035 29.2731 6.63616 29.6359L6.4892 30.3941C6.36611 31.0276 6.30337 31.6696 6.3003 32.3078C4.20088 33.4036 2.76671 35.5777 2.76671 38.0769C2.76671 41.6747 5.73768 44.6015 9.38959 44.6015C11.3581 44.6015 13.1274 43.7506 14.3417 42.4033C15.145 42.5931 15.9736 42.6895 16.8104 42.6895C17.6471 42.6895 18.4757 42.5931 19.2794 42.4033C20.4936 43.7503 22.263 44.6015 24.2311 44.6015C27.8834 44.6015 30.8543 41.6747 30.8543 38.0766C30.8543 35.5777 29.4202 33.4036 27.3211 32.3078C27.3177 31.6696 27.255 31.0273 27.1319 30.3941L26.9846 29.6349C29.8021 29.3225 32.1617 27.2438 32.7372 24.4611V24.4611ZM25.4512 1.86197C26.5863 1.84685 27.6621 2.26877 28.4763 3.04979C29.291 3.8308 29.7479 4.87753 29.7632 5.99749C29.782 7.37846 29.1007 8.6731 27.9829 9.46352C27.1182 6.68143 25.2101 4.34442 22.7097 2.89728C23.4653 2.24693 24.434 1.87541 25.4512 1.86197V1.86197ZM6.43805 12.8268C6.43805 10.8919 6.98942 9.00869 8.03214 7.38081C8.22548 7.07949 8.13375 6.68109 7.82823 6.49096C7.52237 6.30083 7.11797 6.39086 6.92497 6.69218C6.3777 7.5471 5.95181 8.4645 5.65175 9.42086C4.57732 8.6385 3.93423 7.40433 3.93423 6.05359C3.93423 3.74212 5.84338 1.86163 8.18967 1.86163C9.21398 1.86163 10.1861 2.22107 10.9506 2.86469C10.0453 3.38369 9.20512 4.02732 8.45189 4.78717C8.19922 5.04213 8.20434 5.45061 8.4628 5.69919C8.72126 5.94811 9.1359 5.94341 9.38856 5.68844C11.3574 3.70214 13.9932 2.60839 16.8107 2.60839C22.53 2.60839 27.183 7.19236 27.183 12.8268C27.183 14.1459 26.9327 15.4238 26.4393 16.6317C26.3756 16.6301 26.3118 16.6274 26.2474 16.6274C22.7642 16.6274 19.9024 19.2912 19.6453 22.6592C18.727 22.9155 17.7757 23.0451 16.8107 23.0451C15.8457 23.0451 14.894 22.9155 13.9761 22.6592C13.719 19.2912 10.8572 16.6274 7.37371 16.6274C7.3096 16.6274 7.24584 16.6304 7.18207 16.6324C6.68867 15.4241 6.43805 14.1463 6.43805 12.8268V12.8268ZM2.05986 23.1523C2.05986 20.2661 4.44366 17.9176 7.37371 17.9176C10.3038 17.9176 12.6876 20.2661 12.6876 23.1523C12.6876 26.0389 10.3038 28.3873 7.37371 28.3873C4.44366 28.3873 2.05986 26.0389 2.05986 23.1523ZM9.38993 43.3116C6.45988 43.3116 4.07608 40.9632 4.07608 38.0766C4.07608 35.1904 6.45988 32.8416 9.38993 32.8416C12.3196 32.8416 14.7034 35.19 14.7034 38.0766C14.7034 40.9632 12.3196 43.3116 9.38993 43.3116ZM29.545 38.0766C29.545 40.9632 27.1612 43.3116 24.2311 43.3116C21.3014 43.3116 18.9176 40.9632 18.9176 38.0766C18.9176 35.1904 21.3014 32.8416 24.2311 32.8416C27.1612 32.8416 29.545 35.1904 29.545 38.0766ZM24.2311 31.5517C20.5792 31.5517 17.6083 34.4789 17.6083 38.0766C17.6083 39.2305 17.9151 40.3145 18.4505 41.2558C17.9124 41.3505 17.3638 41.3992 16.8107 41.3992C16.2573 41.3992 15.7086 41.3505 15.1706 41.2558C15.7063 40.3145 16.0131 39.2305 16.0131 38.0766C16.0131 34.4789 13.0418 31.5517 9.38993 31.5517C8.77991 31.5517 8.18933 31.6353 7.62808 31.7882C7.65263 31.4032 7.70139 31.0179 7.77538 30.6363L7.96667 29.6497C11.0621 29.3779 13.5502 26.9996 13.9413 23.9834C14.8753 24.2158 15.8369 24.3351 16.8107 24.3351C17.7845 24.3351 18.7461 24.2158 19.6801 23.9834C20.0712 26.9996 22.5593 29.3779 25.6547 29.6497L25.846 30.6363C25.92 31.0179 25.9688 31.4032 25.9933 31.7882C25.4317 31.6353 24.8415 31.5517 24.2311 31.5517V31.5517Z" fill="#564F4D"/>
<path d="M14.6917 14.0229C15.4732 14.0229 16.2138 13.7612 16.8109 13.2802C17.4076 13.7612 18.1485 14.0229 18.9301 14.0229C19.2915 14.0229 19.5848 13.734 19.5848 13.3779C19.5848 13.0219 19.2915 12.733 18.9301 12.733C18.3838 12.733 17.8703 12.5234 17.484 12.1431L17.2736 11.9358C17.1508 11.8146 16.9844 11.7467 16.8105 11.7467C16.637 11.7467 16.4706 11.8149 16.3478 11.9358L16.1374 12.1431C15.7514 12.5234 15.2379 12.733 14.6917 12.733C14.3299 12.733 14.037 13.0219 14.037 13.3779C14.037 13.734 14.3299 14.0229 14.6917 14.0229Z" fill="#564F4D"/>
<path d="M22.3703 13.0371C22.7317 13.0371 23.0249 12.7482 23.0249 12.3921V11.4156C23.0249 11.0595 22.7317 10.7706 22.3703 10.7706C22.0088 10.7706 21.7156 11.0595 21.7156 11.4156V12.3921C21.7156 12.7482 22.0088 13.0371 22.3703 13.0371Z" fill="#564F4D"/>
<path d="M11.2511 13.0371C11.6126 13.0371 11.9058 12.7482 11.9058 12.3921V11.4156C11.9058 11.0595 11.6126 10.7706 11.2511 10.7706C10.8897 10.7706 10.5964 11.0595 10.5964 11.4156V12.3921C10.5964 12.7482 10.8897 13.0371 11.2511 13.0371Z" fill="#564F4D"/>
<path d="M21.8743 14.8828H22.8655C23.2273 14.8828 23.5202 14.5939 23.5202 14.2379C23.5202 13.8818 23.2273 13.5929 22.8655 13.5929H21.8743C21.5128 13.5929 21.2196 13.8818 21.2196 14.2379C21.2196 14.5939 21.5128 14.8828 21.8743 14.8828V14.8828Z" fill="#564F4D"/>
<path d="M10.7554 14.8828H11.7466C12.1084 14.8828 12.4013 14.5939 12.4013 14.2379C12.4013 13.8818 12.1084 13.5929 11.7466 13.5929H10.7554C10.394 13.5929 10.1007 13.8818 10.1007 14.2379C10.1007 14.5939 10.394 14.8828 10.7554 14.8828Z" fill="#564F4D"/>
</svg>
