<svg width="50" height="56" viewBox="0 0 50 56" fill="none" xmlns="http://www.w3.org/2000/svg">
<rect width="48.1361" height="54.9999" fill="black" fill-opacity="0" transform="translate(1.00006 1)"/>
<rect width="30.5458" height="42.0257" fill="black" fill-opacity="0" transform="translate(9.75208 13.9741)"/>
<path d="M40.2853 36.7762C40.3539 36.4431 40.1359 36.1179 39.7974 36.05C39.4592 35.982 39.1291 36.1971 39.0605 36.5303C38.582 38.8442 36.4917 40.5237 34.0903 40.5237C31.2934 40.5237 29.0179 38.2822 29.0179 35.527C29.0179 32.7718 31.2934 30.5303 34.0903 30.5303C36.4813 30.5303 38.57 32.2014 39.0562 34.5032C39.1265 34.8361 39.4576 35.0496 39.7954 34.9807C40.1333 34.9114 40.3504 34.5853 40.2797 34.2525C39.7752 31.8629 37.8861 30.0202 35.5478 29.4697C36.0025 28.2574 36.2333 26.9832 36.2333 25.6715C36.2333 25.0084 36.1734 24.3592 36.0585 23.7282C37.6986 22.7845 38.722 21.0252 38.6962 19.1364C38.677 17.7388 38.1068 16.4322 37.09 15.4575C36.0735 14.4825 34.7348 13.956 33.3137 13.9746C31.878 13.9938 30.5194 14.5835 29.5361 15.6021C28.171 15.0141 26.665 14.6867 25.0825 14.6867C23.539 14.6867 22.047 14.9926 20.6741 15.5745C19.6752 14.5537 18.3062 13.9743 16.8529 13.9743C13.9242 13.9743 11.5413 16.3216 11.5413 19.2066C11.5413 21.0656 12.5168 22.7464 14.1139 23.6903C13.9935 24.3402 13.9313 25.003 13.9313 25.6715C13.9313 26.9825 14.1621 28.2564 14.6161 29.4684C11.831 30.1186 9.75208 32.5875 9.75208 35.527C9.75208 38.7266 12.2147 41.3692 15.3703 41.7155L15.23 42.4392C15.1125 43.0439 15.0526 43.6566 15.0497 44.2658C13.0457 45.3117 11.6767 47.3868 11.6767 49.7723C11.6767 53.2062 14.5126 55.9999 17.9986 55.9999C19.8776 55.9999 21.5666 55.1877 22.7256 53.9017C23.4925 54.0828 24.2834 54.1748 25.0821 54.1748C25.8809 54.1748 26.6718 54.0828 27.439 53.9017C28.598 55.1874 30.287 55.9999 32.1657 55.9999C35.652 55.9999 38.4879 53.2062 38.4879 49.772C38.4879 47.3868 37.1189 45.3117 35.1152 44.2658C35.112 43.6566 35.0521 43.0435 34.9346 42.4392L34.794 41.7145C37.4835 41.4163 39.7358 39.4323 40.2853 36.7762V36.7762ZM33.3303 15.2058C34.4138 15.1914 35.4407 15.5941 36.218 16.3396C36.9956 17.085 37.4317 18.0841 37.4464 19.1531C37.4643 20.4712 36.814 21.7069 35.747 22.4613C34.9216 19.8059 33.1002 17.5753 30.7134 16.194C31.4347 15.5733 32.3594 15.2186 33.3303 15.2058V15.2058ZM15.1812 25.6715C15.1812 23.8247 15.7075 22.0272 16.7028 20.4734C16.8874 20.1858 16.7998 19.8056 16.5082 19.6241C16.2162 19.4426 15.8302 19.5285 15.646 19.8162C15.1236 20.6322 14.717 21.5078 14.4306 22.4206C13.405 21.6739 12.7911 20.4959 12.7911 19.2066C12.7911 17.0004 14.6135 15.2055 16.8532 15.2055C17.831 15.2055 18.7589 15.5486 19.4887 16.1629C18.6245 16.6583 17.8225 17.2726 17.1035 17.9979C16.8623 18.2412 16.8672 18.6311 17.1139 18.8684C17.3606 19.106 17.7564 19.1015 17.9976 18.8581C19.877 16.9622 22.393 15.9183 25.0825 15.9183C30.5418 15.9183 34.9834 20.2936 34.9834 25.6715C34.9834 26.9306 34.7445 28.1503 34.2735 29.3033C34.2127 29.3017 34.1518 29.2991 34.0903 29.2991C30.7655 29.2991 28.0336 31.8417 27.7882 35.0563C26.9117 35.301 26.0036 35.4247 25.0825 35.4247C24.1613 35.4247 23.2529 35.301 22.3767 35.0563C22.1313 31.8417 19.3995 29.2991 16.0743 29.2991C16.0131 29.2991 15.9523 29.302 15.8914 29.3039C15.4204 28.1506 15.1812 26.9309 15.1812 25.6715V25.6715ZM11.0019 35.527C11.0019 32.7722 13.2774 30.5306 16.0743 30.5306C18.8712 30.5306 21.1467 32.7722 21.1467 35.527C21.1467 38.2822 18.8712 40.5237 16.0743 40.5237C13.2774 40.5237 11.0019 38.2822 11.0019 35.527ZM17.9989 54.7687C15.202 54.7687 12.9265 52.5271 12.9265 49.772C12.9265 47.0171 15.202 44.7753 17.9989 44.7753C20.7955 44.7753 23.071 47.0168 23.071 49.772C23.071 52.5271 20.7955 54.7687 17.9989 54.7687ZM37.2381 49.772C37.2381 52.5271 34.9626 54.7687 32.1657 54.7687C29.3691 54.7687 27.0936 52.5271 27.0936 49.772C27.0936 47.0171 29.3691 44.7753 32.1657 44.7753C34.9626 44.7753 37.2381 47.0171 37.2381 49.772ZM32.1657 43.544C28.6797 43.544 25.8438 46.338 25.8438 49.772C25.8438 50.8733 26.1367 51.908 26.6477 52.8064C26.1341 52.8968 25.6104 52.9433 25.0825 52.9433C24.5542 52.9433 24.0305 52.8968 23.5169 52.8064C24.0282 51.908 24.3212 50.8733 24.3212 49.772C24.3212 46.338 21.4849 43.544 17.9989 43.544C17.4166 43.544 16.8529 43.6239 16.3171 43.7698C16.3406 43.4023 16.3871 43.0346 16.4577 42.6703L16.6403 41.7286C19.5951 41.4692 21.9702 39.1992 22.3435 36.3203C23.235 36.5421 24.1529 36.656 25.0825 36.656C26.0121 36.656 26.9299 36.5421 27.8214 36.3203C28.1948 39.1992 30.5698 41.4692 33.5246 41.7286L33.7072 42.6703C33.7778 43.0346 33.8244 43.4023 33.8478 43.7698C33.3117 43.6239 32.7483 43.544 32.1657 43.544V43.544Z" fill="#564F4D"/>
<path d="M23.0597 26.8132C23.8057 26.8132 24.5127 26.5634 25.0826 26.1043C25.6522 26.5634 26.3595 26.8132 27.1055 26.8132C27.4505 26.8132 27.7304 26.5375 27.7304 26.1976C27.7304 25.8577 27.4505 25.582 27.1055 25.582C26.584 25.582 26.0939 25.3819 25.7251 25.019L25.5243 24.8211C25.4071 24.7054 25.2483 24.6406 25.0823 24.6406C24.9166 24.6406 24.7577 24.7057 24.6406 24.8211L24.4397 25.019C24.0713 25.3819 23.5811 25.582 23.0597 25.582C22.7143 25.582 22.4348 25.8577 22.4348 26.1976C22.4348 26.5375 22.7143 26.8132 23.0597 26.8132Z" fill="#564F4D"/>
<path d="M30.3892 25.8723C30.7342 25.8723 31.0141 25.5965 31.0141 25.2567V24.3246C31.0141 23.9847 30.7342 23.709 30.3892 23.709C30.0441 23.709 29.7642 23.9847 29.7642 24.3246V25.2567C29.7642 25.5965 30.0441 25.8723 30.3892 25.8723Z" fill="#564F4D"/>
<path d="M19.7755 25.8723C20.1205 25.8723 20.4004 25.5965 20.4004 25.2567V24.3246C20.4004 23.9847 20.1205 23.709 19.7755 23.709C19.4305 23.709 19.1506 23.9847 19.1506 24.3246V25.2567C19.1506 25.5965 19.4305 25.8723 19.7755 25.8723Z" fill="#564F4D"/>
<path d="M29.9158 27.6341H30.862C31.2074 27.6341 31.4869 27.3583 31.4869 27.0184C31.4869 26.6786 31.2074 26.4028 30.862 26.4028H29.9158C29.5708 26.4028 29.2909 26.6786 29.2909 27.0184C29.2909 27.3583 29.5708 27.6341 29.9158 27.6341V27.6341Z" fill="#564F4D"/>
<path d="M19.3022 27.6341H20.2484C20.5937 27.6341 20.8733 27.3583 20.8733 27.0184C20.8733 26.6786 20.5937 26.4028 20.2484 26.4028H19.3022C18.9572 26.4028 18.6772 26.6786 18.6772 27.0184C18.6772 27.3583 18.9572 27.6341 19.3022 27.6341Z" fill="#564F4D"/>
<path d="M41.3508 21.1821H48.6556C48.921 21.1821 49.1361 20.967 49.1361 20.7016C49.1361 20.4362 48.921 20.2211 48.6556 20.2211H41.3508C41.0854 20.2211 40.8703 20.4362 40.8703 20.7016C40.8703 20.967 41.0854 21.1821 41.3508 21.1821Z" fill="#FD8800" stroke="#FD8800"/>
<path d="M1.48057 21.1821H8.78534C9.05073 21.1821 9.26587 20.967 9.26587 20.7016C9.26587 20.4362 9.05073 20.2211 8.78534 20.2211H1.48057C1.21519 20.2211 1.00005 20.4362 1.00005 20.7016C1.00005 20.967 1.21518 21.1821 1.48057 21.1821Z" fill="#FD8800" stroke="#FD8800"/>
<path d="M7.66464 6.34422L12.8218 11.441C13.0117 11.6286 13.3196 11.6286 13.5095 11.441C13.6993 11.2533 13.6993 10.9491 13.5095 10.7614L8.35227 5.66466C8.16239 5.477 7.85452 5.477 7.66464 5.66466C7.47476 5.85231 7.47476 6.15657 7.66464 6.34422Z" fill="#FD8800" stroke="#FD8800"/>
<path d="M41.0229 5.66454L35.8657 10.7613C35.6758 10.9489 35.6758 11.2532 35.8657 11.4409C36.0555 11.6285 36.3634 11.6285 36.5533 11.4409L41.7105 6.3441C41.9004 6.15645 41.9004 5.85219 41.7105 5.66454C41.5206 5.47688 41.2127 5.47688 41.0229 5.66454Z" fill="#FD8800" stroke="#FD8800"/>
<path d="M24.8251 8.68273V1.48623C24.8251 1.21769 25.0428 1 25.3113 1C25.5798 1 25.7975 1.21769 25.7975 1.48622V8.68273C25.7975 8.95126 25.5798 9.16895 25.3113 9.16895C25.0428 9.16895 24.8251 8.95126 24.8251 8.68273Z" fill="#FD8800" stroke="#FD8800"/>
</svg>
