<svg width="50" height="59" viewBox="0 0 50 59" fill="none" xmlns="http://www.w3.org/2000/svg">
<rect width="48.1361" height="57.0041" fill="black" fill-opacity="0" transform="translate(1 1)"/>
<rect width="32" height="44.03" fill="black" fill-opacity="0" transform="translate(8.75208 13.9741)"/>
<path d="M40.7388 37.8636C40.8108 37.5146 40.5823 37.174 40.2277 37.1028C39.8734 37.0316 39.5277 37.257 39.4557 37.606C38.9545 40.0303 36.7647 41.7899 34.2489 41.7899C31.3189 41.7899 28.9351 39.4415 28.9351 36.5549C28.9351 33.6683 31.3189 31.3199 34.2489 31.3199C36.7538 31.3199 38.9419 33.0707 39.4513 35.4823C39.5249 35.831 39.8717 36.0547 40.2257 35.9825C40.5796 35.9099 40.807 35.5683 40.733 35.2196C40.2045 32.716 38.2255 30.7854 35.7759 30.2087C36.2522 28.9386 36.494 27.6036 36.494 26.2294C36.494 25.5347 36.4312 24.8544 36.3109 24.1933C38.0291 23.2047 39.1011 21.3615 39.0742 19.3826C39.054 17.9183 38.4566 16.5495 37.3914 15.5283C36.3265 14.5067 34.9241 13.9551 33.4354 13.9746C31.9313 13.9948 30.508 14.6125 29.4779 15.6798C28.0479 15.0637 26.4701 14.7207 24.8123 14.7207C23.1954 14.7207 21.6323 15.0412 20.194 15.6509C19.1476 14.5813 17.7134 13.9743 16.1909 13.9743C13.1228 13.9743 10.6264 16.4336 10.6264 19.4562C10.6264 21.4038 11.6484 23.1647 13.3216 24.1537C13.1954 24.8346 13.1303 25.529 13.1303 26.2294C13.1303 27.6029 13.372 28.9375 13.8477 30.2073C10.9299 30.8886 8.75208 33.4752 8.75208 36.5549C8.75208 39.907 11.3319 42.6757 14.6378 43.0385L14.4908 43.7967C14.3677 44.4302 14.305 45.0722 14.3019 45.7104C12.2025 46.8062 10.7683 48.9803 10.7683 51.4795C10.7683 55.0772 13.7393 58.0041 17.3912 58.0041C19.3597 58.0041 21.129 57.1532 22.3432 55.8059C23.1466 55.9956 23.9752 56.0921 24.8119 56.0921C25.6487 56.0921 26.4773 55.9956 27.281 55.8059C28.4952 57.1529 30.2646 58.0041 32.2327 58.0041C35.885 58.0041 38.8559 55.0772 38.8559 51.4792C38.8559 48.9803 37.4218 46.8062 35.3227 45.7104C35.3193 45.0722 35.2565 44.4299 35.1334 43.7967L34.9861 43.0375C37.8037 42.7251 40.1633 40.6464 40.7388 37.8636V37.8636ZM33.4527 15.2646C34.5879 15.2494 35.6637 15.6714 36.4779 16.4524C37.2925 17.2334 37.7495 18.2801 37.7648 19.4001C37.7836 20.7811 37.1023 22.0757 35.9845 22.8661C35.1198 20.084 33.2117 17.747 30.7113 16.2999C31.4669 15.6495 32.4356 15.278 33.4527 15.2646V15.2646ZM14.4396 26.2294C14.4396 24.2944 14.991 22.4113 16.0337 20.7834C16.2271 20.4821 16.1353 20.0837 15.8298 19.8935C15.524 19.7034 15.1196 19.7934 14.9266 20.0948C14.3793 20.9497 13.9534 21.8671 13.6533 22.8235C12.5789 22.0411 11.9358 20.8069 11.9358 19.4562C11.9358 17.1447 13.845 15.2642 16.1913 15.2642C17.2156 15.2642 18.1877 15.6237 18.9522 16.2673C18.0469 16.7863 17.2067 17.4299 16.4535 18.1898C16.2008 18.4447 16.2059 18.8532 16.4644 19.1018C16.7229 19.3507 17.1375 19.346 17.3902 19.091C19.359 17.1047 21.9948 16.011 24.8123 16.011C30.5316 16.011 35.1846 20.595 35.1846 26.2294C35.1846 27.5485 34.9343 28.8264 34.4409 30.0343C34.3771 30.0327 34.3134 30.03 34.2489 30.03C30.7658 30.03 27.904 32.6938 27.6469 36.0618C26.7286 36.3181 25.7773 36.4477 24.8123 36.4477C23.8473 36.4477 22.8956 36.3181 21.9777 36.0618C21.7206 32.6938 18.8588 30.03 15.3753 30.03C15.3112 30.03 15.2474 30.033 15.1837 30.035C14.6903 28.8267 14.4396 27.5489 14.4396 26.2294V26.2294ZM10.0614 36.5549C10.0614 33.6687 12.4452 31.3202 15.3753 31.3202C18.3053 31.3202 20.6891 33.6687 20.6891 36.5549C20.6891 39.4415 18.3053 41.7899 15.3753 41.7899C12.4452 41.7899 10.0614 39.4415 10.0614 36.5549ZM17.3915 56.7142C14.4615 56.7142 12.0777 54.3658 12.0777 51.4792C12.0777 48.593 14.4615 46.2442 17.3915 46.2442C20.3212 46.2442 22.705 48.5926 22.705 51.4792C22.705 54.3658 20.3212 56.7142 17.3915 56.7142ZM37.5466 51.4792C37.5466 54.3658 35.1628 56.7142 32.2327 56.7142C29.303 56.7142 26.9192 54.3658 26.9192 51.4792C26.9192 48.593 29.303 46.2442 32.2327 46.2442C35.1628 46.2442 37.5466 48.593 37.5466 51.4792ZM32.2327 44.9543C28.5808 44.9543 25.6098 47.8815 25.6098 51.4792C25.6098 52.6331 25.9167 53.7171 26.4521 54.6583C25.914 54.7531 25.3654 54.8018 24.8123 54.8018C24.2589 54.8018 23.7102 54.7531 23.1722 54.6583C23.7078 53.7171 24.0147 52.6331 24.0147 51.4792C24.0147 47.8815 21.0434 44.9543 17.3915 44.9543C16.7815 44.9543 16.1909 45.0379 15.6297 45.1907C15.6542 44.8058 15.703 44.4205 15.777 44.0389L15.9683 43.0523C19.0637 42.7805 21.5518 40.4022 21.9429 37.386C22.8769 37.6184 23.8384 37.7377 24.8123 37.7377C25.7861 37.7377 26.7477 37.6184 27.6816 37.386C28.0727 40.4022 30.5609 42.7805 33.6563 43.0523L33.8476 44.0389C33.9216 44.4205 33.9704 44.8058 33.9949 45.1907C33.4333 45.0379 32.8431 44.9543 32.2327 44.9543V44.9543Z" fill="#564F4D"/>
<path d="M22.6931 27.4255C23.4747 27.4255 24.2153 27.1638 24.8123 26.6828C25.4091 27.1638 26.15 27.4255 26.9315 27.4255C27.293 27.4255 27.5862 27.1366 27.5862 26.7805C27.5862 26.4244 27.293 26.1356 26.9315 26.1356C26.3853 26.1356 25.8718 25.9259 25.4854 25.5457L25.275 25.3384C25.1523 25.2171 24.9859 25.1493 24.812 25.1493C24.6384 25.1493 24.472 25.2175 24.3493 25.3384L24.1389 25.5457C23.7529 25.9259 23.2394 26.1356 22.6931 26.1356C22.3314 26.1356 22.0385 26.4244 22.0385 26.7805C22.0385 27.1366 22.3314 27.4255 22.6931 27.4255Z" fill="#564F4D"/>
<path d="M30.3716 26.4397C30.733 26.4397 31.0263 26.1508 31.0263 25.7947V24.8182C31.0263 24.4621 30.733 24.1732 30.3716 24.1732C30.0102 24.1732 29.7169 24.4621 29.7169 24.8182V25.7947C29.7169 26.1508 30.0102 26.4397 30.3716 26.4397Z" fill="#564F4D"/>
<path d="M19.2527 26.4397C19.6141 26.4397 19.9074 26.1508 19.9074 25.7947V24.8182C19.9074 24.4621 19.6141 24.1732 19.2527 24.1732C18.8913 24.1732 18.598 24.4621 18.598 24.8182V25.7947C18.598 26.1508 18.8913 26.4397 19.2527 26.4397Z" fill="#564F4D"/>
<path d="M29.8758 28.2854H30.867C31.2288 28.2854 31.5217 27.9965 31.5217 27.6405C31.5217 27.2844 31.2288 26.9955 30.867 26.9955H29.8758C29.5143 26.9955 29.2211 27.2844 29.2211 27.6405C29.2211 27.9965 29.5143 28.2854 29.8758 28.2854V28.2854Z" fill="#564F4D"/>
<path d="M18.7569 28.2854H19.7481C20.1099 28.2854 20.4028 27.9965 20.4028 27.6405C20.4028 27.2844 20.1099 26.9955 19.7481 26.9955H18.7569C18.3954 26.9955 18.1022 27.2844 18.1022 27.6405C18.1022 27.9965 18.3954 28.2854 18.7569 28.2854Z" fill="#564F4D"/>
<path d="M41.3508 21.1821H48.6556C48.921 21.1821 49.1361 20.967 49.1361 20.7016C49.1361 20.4362 48.921 20.2211 48.6556 20.2211H41.3508C41.0854 20.2211 40.8703 20.4362 40.8703 20.7016C40.8703 20.967 41.0854 21.1821 41.3508 21.1821Z" fill="#FD8800" stroke="#FD8800"/>
<path d="M1.48057 21.1821H8.78534C9.05073 21.1821 9.26587 20.967 9.26587 20.7016C9.26587 20.4362 9.05073 20.2211 8.78534 20.2211H1.48057C1.21519 20.2211 1.00005 20.4362 1.00005 20.7016C1.00005 20.967 1.21518 21.1821 1.48057 21.1821Z" fill="#FD8800" stroke="#FD8800"/>
<path d="M7.66464 6.34422L12.8218 11.441C13.0117 11.6286 13.3196 11.6286 13.5095 11.441C13.6993 11.2533 13.6993 10.9491 13.5095 10.7614L8.35227 5.66466C8.16239 5.477 7.85452 5.477 7.66464 5.66466C7.47476 5.85231 7.47476 6.15657 7.66464 6.34422Z" fill="#FD8800" stroke="#FD8800"/>
<path d="M41.0229 5.66454L35.8657 10.7613C35.6758 10.9489 35.6758 11.2532 35.8657 11.4409C36.0555 11.6285 36.3634 11.6285 36.5533 11.4409L41.7105 6.3441C41.9004 6.15645 41.9004 5.85219 41.7105 5.66454C41.5206 5.47688 41.2127 5.47688 41.0229 5.66454Z" fill="#FD8800" stroke="#FD8800"/>
<path d="M24.8251 8.68273V1.48623C24.8251 1.21769 25.0428 1 25.3113 1C25.5798 1 25.7975 1.21769 25.7975 1.48622V8.68273C25.7975 8.95126 25.5798 9.16895 25.3113 9.16895C25.0428 9.16895 24.8251 8.95126 24.8251 8.68273Z" fill="#FD8800" stroke="#FD8800"/>
</svg>
