<svg width="32" height="45" viewBox="0 0 32 45" fill="none" xmlns="http://www.w3.org/2000/svg">
<rect width="32" height="44.03" fill="black" fill-opacity="0"/>
<rect width="32" height="44.03" fill="black" fill-opacity="0"/>
<path d="M31.9868 23.8895C32.0587 23.5405 31.8302 23.1999 31.4756 23.1287C31.1213 23.0574 30.7756 23.2828 30.7036 23.6319C30.2024 26.0562 28.0126 27.8158 25.4969 27.8158C22.5668 27.8158 20.183 25.4673 20.183 22.5808C20.183 19.6942 22.5668 17.3458 25.4969 17.3458C28.0017 17.3458 30.1898 19.0966 30.6992 21.5082C30.7729 21.8569 31.1196 22.0806 31.4736 22.0084C31.8275 21.9358 32.055 21.5942 31.981 21.2455C31.4524 18.7419 29.4734 16.8113 27.0238 16.2346C27.5001 14.9644 27.7419 13.6295 27.7419 12.2552C27.7419 11.5605 27.6791 10.8803 27.5588 10.2192C29.277 9.2306 30.349 7.3874 30.3221 5.40849C30.302 3.94421 29.7046 2.57533 28.6393 1.55413C27.5745 0.532598 26.172 -0.0189843 24.6833 0.000499048C23.1792 0.0206543 21.756 0.638413 20.7259 1.70563C19.2958 1.08955 17.7181 0.74658 16.0602 0.74658C14.4433 0.74658 12.8802 1.06705 11.442 1.67674C10.3955 0.607172 8.96133 0.000163127 7.43884 0.000163127C4.3707 0.000163127 1.87437 2.45944 1.87437 5.48206C1.87437 7.42973 2.89629 9.19063 4.56949 10.1796C4.44333 10.8605 4.3782 11.5548 4.3782 12.2552C4.3782 13.6288 4.61995 14.9634 5.09562 16.2332C2.17785 16.9145 0 19.501 0 22.5808C0 25.9329 2.57986 28.7016 5.88568 29.0644L5.73871 29.8226C5.61562 30.4561 5.55288 31.098 5.54981 31.7363C3.45039 32.8321 2.01622 35.0062 2.01622 37.5054C2.01622 41.1031 4.98719 44.03 8.6391 44.03C10.6076 44.03 12.3769 43.1791 13.5912 41.8317C14.3945 42.0215 15.2231 42.1179 16.0599 42.1179C16.8966 42.1179 17.7252 42.0215 18.5289 41.8317C19.7431 43.1788 21.5125 44.03 23.4806 44.03C27.1329 44.03 30.1039 41.1031 30.1039 37.5051C30.1039 35.0062 28.6697 32.8321 26.5706 31.7363C26.5672 31.098 26.5045 30.4558 26.3814 29.8226L26.2341 29.0634C29.0516 28.751 31.4112 26.6723 31.9868 23.8895V23.8895ZM24.7007 1.29044C25.8358 1.27532 26.9116 1.69724 27.7259 2.47825C28.5405 3.25927 28.9974 4.306 29.0127 5.42596C29.0315 6.80693 28.3502 8.10157 27.2325 8.89199C26.3677 6.10989 24.4596 3.77289 21.9592 2.32574C22.7148 1.6754 23.6835 1.30387 24.7007 1.29044V1.29044ZM5.68757 12.2552C5.68757 10.3203 6.23893 8.43715 7.28165 6.80928C7.47499 6.50796 7.38326 6.10956 7.07775 5.91943C6.77189 5.7293 6.36748 5.81932 6.17449 6.12064C5.62721 6.97556 5.20133 7.89296 4.90126 8.84933C3.82683 8.06697 3.18374 6.8328 3.18374 5.48206C3.18374 3.17059 5.09289 1.2901 7.43919 1.2901C8.46349 1.2901 9.43563 1.64954 10.2001 2.29316C9.29481 2.81216 8.45463 3.45578 7.7014 4.21564C7.44873 4.4706 7.45385 4.87908 7.71231 5.12766C7.97078 5.37658 8.38541 5.37188 8.63808 5.11691C10.6069 3.13061 13.2427 2.03685 16.0602 2.03685C21.7795 2.03685 26.4325 6.62083 26.4325 12.2552C26.4325 13.5744 26.1822 14.8522 25.6888 16.0602C25.6251 16.0585 25.5613 16.0558 25.4969 16.0558C22.0137 16.0558 19.1519 18.7197 18.8948 22.0876C17.9765 22.3439 17.0252 22.4736 16.0602 22.4736C15.0952 22.4736 14.1436 22.3439 13.2256 22.0876C12.9685 18.7197 10.1067 16.0558 6.62322 16.0558C6.55911 16.0558 6.49535 16.0589 6.43159 16.0609C5.93819 14.8526 5.68757 13.5747 5.68757 12.2552V12.2552ZM1.30937 22.5808C1.30937 19.6945 3.69317 17.3461 6.62322 17.3461C9.55327 17.3461 11.9371 19.6945 11.9371 22.5808C11.9371 25.4673 9.55327 27.8158 6.62322 27.8158C3.69317 27.8158 1.30937 25.4673 1.30937 22.5808ZM8.63944 42.7401C5.70939 42.7401 3.32559 40.3916 3.32559 37.5051C3.32559 34.6188 5.70939 32.2701 8.63944 32.2701C11.5691 32.2701 13.9529 34.6185 13.9529 37.5051C13.9529 40.3916 11.5691 42.7401 8.63944 42.7401ZM28.7945 37.5051C28.7945 40.3916 26.4107 42.7401 23.4806 42.7401C20.5509 42.7401 18.1671 40.3916 18.1671 37.5051C18.1671 34.6188 20.5509 32.2701 23.4806 32.2701C26.4107 32.2701 28.7945 34.6188 28.7945 37.5051ZM23.4806 30.9801C19.8287 30.9801 16.8578 33.9074 16.8578 37.5051C16.8578 38.659 17.1647 39.743 17.7 40.6842C17.1619 40.779 16.6133 40.8277 16.0602 40.8277C15.5068 40.8277 14.9582 40.779 14.4201 40.6842C14.9558 39.743 15.2627 38.659 15.2627 37.5051C15.2627 33.9074 12.2913 30.9801 8.63944 30.9801C8.02942 30.9801 7.43884 31.0638 6.87759 31.2166C6.90214 30.8317 6.9509 30.4464 7.02489 30.0648L7.21618 29.0782C10.3116 28.8064 12.7998 26.4281 13.1909 23.4118C14.1248 23.6443 15.0864 23.7635 16.0602 23.7635C17.0341 23.7635 17.9956 23.6443 18.9296 23.4118C19.3207 26.4281 21.8088 28.8064 24.9042 29.0782L25.0955 30.0648C25.1695 30.4464 25.2183 30.8317 25.2428 31.2166C24.6812 31.0638 24.091 30.9801 23.4806 30.9801V30.9801Z" fill="#564F4D"/>
<path d="M13.9412 13.4514C14.7227 13.4514 15.4633 13.1897 16.0604 12.7087C16.6571 13.1897 17.398 13.4514 18.1796 13.4514C18.541 13.4514 18.8343 13.1625 18.8343 12.8064C18.8343 12.4503 18.541 12.1614 18.1796 12.1614C17.6333 12.1614 17.1198 11.9518 16.7335 11.5716L16.5231 11.3643C16.4003 11.243 16.2339 11.1752 16.06 11.1752C15.8865 11.1752 15.7201 11.2434 15.5973 11.3643L15.3869 11.5716C15.001 11.9518 14.4874 12.1614 13.9412 12.1614C13.5794 12.1614 13.2865 12.4503 13.2865 12.8064C13.2865 13.1625 13.5794 13.4514 13.9412 13.4514Z" fill="#564F4D"/>
<path d="M21.6198 12.4656C21.9812 12.4656 22.2745 12.1767 22.2745 11.8206V10.8441C22.2745 10.488 21.9812 10.1991 21.6198 10.1991C21.2583 10.1991 20.9651 10.488 20.9651 10.8441V11.8206C20.9651 12.1767 21.2583 12.4656 21.6198 12.4656Z" fill="#564F4D"/>
<path d="M10.5006 12.4656C10.8621 12.4656 11.1553 12.1767 11.1553 11.8206V10.8441C11.1553 10.488 10.8621 10.1991 10.5006 10.1991C10.1392 10.1991 9.84595 10.488 9.84595 10.8441V11.8206C9.84595 12.1767 10.1392 12.4656 10.5006 12.4656Z" fill="#564F4D"/>
<path d="M21.1238 14.3113H22.115C22.4768 14.3113 22.7697 14.0224 22.7697 13.6663C22.7697 13.3103 22.4768 13.0214 22.115 13.0214H21.1238C20.7624 13.0214 20.4691 13.3103 20.4691 13.6663C20.4691 14.0224 20.7624 14.3113 21.1238 14.3113V14.3113Z" fill="#564F4D"/>
<path d="M10.0049 14.3113H10.9961C11.3579 14.3113 11.6508 14.0224 11.6508 13.6663C11.6508 13.3103 11.3579 13.0214 10.9961 13.0214H10.0049C9.64346 13.0214 9.35022 13.3103 9.35022 13.6663C9.35022 14.0224 9.64346 14.3113 10.0049 14.3113Z" fill="#564F4D"/>
<rect width="5.05539" height="5.11349" fill="black" fill-opacity="0" transform="matrix(-0.110872 -0.993835 0.994114 -0.108337 3.6167 7.0885)"/>
<path d="M5.00958 4.64839L5.72314 5.21362L6.74724 3.95047L6.03367 3.38524L5.00958 4.64839Z" fill="#FD8800"/>
<path d="M6.63796 1.80936L5.95954 2.64615L4.23248 4.77541L3.58505 5.57492C3.54681 5.62195 3.51833 5.67598 3.50125 5.73392C3.48416 5.79185 3.47882 5.85254 3.48551 5.91252C3.4922 5.9725 3.5108 6.03059 3.54024 6.08345C3.56968 6.13631 3.60939 6.18292 3.65708 6.22058L4.4651 6.86063C4.51272 6.89837 4.56738 6.92647 4.62599 6.94332C4.68459 6.96017 4.74597 6.96543 4.80664 6.95882C4.8673 6.95221 4.92605 6.93385 4.97953 6.90479C5.03301 6.87573 5.08017 6.83653 5.11832 6.78945L5.71166 6.05856L5.71156 6.05772L7.48687 3.86895L8.17123 3.02388C8.20947 2.97685 8.23795 2.92282 8.25503 2.86489C8.27212 2.80695 8.27746 2.74626 8.27077 2.68628C8.26408 2.6263 8.24548 2.56821 8.21604 2.51535C8.1866 2.46249 8.14689 2.41589 8.0992 2.37822L7.29118 1.73817C7.24356 1.70043 7.1889 1.67233 7.13029 1.65549C7.07169 1.63864 7.01031 1.63337 6.94964 1.63998C6.88898 1.64659 6.83023 1.66495 6.77675 1.69401C6.72327 1.72308 6.67611 1.76227 6.63796 1.80936V1.80936ZM4.74679 6.45698L4.76548 6.62447L4.59603 6.64294L4.57735 6.47545L4.74679 6.45698ZM5.04831 6.08507L5.067 6.25256L4.89755 6.27103L4.87887 6.10354L5.04831 6.08507ZM4.37053 6.15894L4.38921 6.32643L4.21977 6.34489L4.20108 6.1774L4.37053 6.15894ZM5.34984 5.71317L5.36852 5.88066L5.19907 5.89912L5.18039 5.73163L5.34984 5.71317ZM4.67205 5.78703L4.69074 5.95452L4.52129 5.97298L4.50261 5.8055L4.67205 5.78703ZM3.99427 5.86089L4.01295 6.02838L3.84351 6.04685L3.82482 5.87936L3.99427 5.86089ZM4.44655 5.30303L4.42787 5.13555L4.59731 5.11708L4.616 5.28457L4.44655 5.30303ZM4.14503 5.67494L4.12634 5.50745L4.29579 5.48899L4.31447 5.65648L4.14503 5.67494ZM4.82281 5.60108L4.80413 5.43359L4.97357 5.41512L4.99226 5.58261L4.82281 5.60108ZM6.95151 3.92814C6.95398 3.95035 6.94743 3.97262 6.93329 3.99005L5.80258 5.38471C5.78845 5.40214 5.76789 5.41331 5.74542 5.41575C5.72296 5.4182 5.70043 5.41173 5.68279 5.39776L4.8362 4.72716C4.81856 4.71319 4.80726 4.69287 4.80479 4.67066C4.80231 4.64845 4.80886 4.62618 4.82299 4.60875L5.95369 3.2141C5.96783 3.19667 5.98839 3.1855 6.01086 3.18305C6.03332 3.1806 6.05585 3.18707 6.07349 3.20104L6.92008 3.87164C6.93772 3.88561 6.94903 3.90593 6.95151 3.92814V3.92814ZM7.30973 3.29577L7.32841 3.46326L7.15897 3.48172L7.14028 3.31424L7.30973 3.29577ZM7.61125 2.92386L7.62994 3.09135L7.46049 3.10982L7.4418 2.94233L7.61125 2.92386ZM6.93347 2.99773L6.95215 3.16521L6.78271 3.18368L6.76402 3.01619L6.93347 2.99773ZM7.91277 2.55195L7.93146 2.71944L7.76201 2.73791L7.74333 2.57042L7.91277 2.55195ZM7.23499 2.62582L7.25367 2.79331L7.08423 2.81177L7.06554 2.64428L7.23499 2.62582ZM6.55721 2.69968L6.57589 2.86717L6.40644 2.88564L6.38776 2.71815L6.55721 2.69968ZM7.53651 2.25391L7.5552 2.4214L7.38575 2.43986L7.36706 2.27238L7.53651 2.25391ZM6.85873 2.32777L6.87741 2.49526L6.70797 2.51373L6.68928 2.34624L6.85873 2.32777ZM7.16025 1.95587L7.17893 2.12335L7.00949 2.14182L6.9908 1.97433L7.16025 1.95587Z" fill="#FD8800"/>
<rect width="7.12175" height="7.05827" fill="black" fill-opacity="0" transform="matrix(0.942232 -0.334961 0.341978 0.939708 18.3599 30.097)"/>
<path d="M25.3026 28.9011L23.9937 28.2928C23.8383 28.2209 23.6605 28.2127 23.4991 28.2701C23.3377 28.3275 23.2058 28.4458 23.1324 28.599L22.3668 30.2057L24.8471 31.36L25.6128 29.7533C25.6852 29.5995 25.6932 29.4237 25.6351 29.2641C25.577 29.1045 25.4575 28.974 25.3026 28.9011V28.9011ZM23.3968 30.0542L23.1731 30.1338L23.0926 29.9127L23.3163 29.8332L23.3968 30.0542ZM24.0051 30.3373L23.7814 30.4169L23.7009 30.1958L23.9246 30.1163L24.0051 30.3373ZM23.6832 29.453L23.4595 29.5326L23.3791 29.3115L23.6028 29.232L23.6832 29.453ZM24.6134 30.6204L24.3897 30.7L24.3092 30.4789L24.5329 30.3994L24.6134 30.6204ZM24.2915 29.7361L24.0678 29.8157L23.9874 29.5946L24.2111 29.5151L24.2915 29.7361ZM23.9697 28.8518L23.746 28.9314L23.6656 28.7103L23.8893 28.6308L23.9697 28.8518ZM24.8998 30.0192L24.6761 30.0988L24.5957 29.8777L24.8194 29.7982L24.8998 30.0192ZM24.578 29.1349L24.3543 29.2145L24.2739 28.9934L24.4976 28.9139L24.578 29.1349ZM25.1863 29.4181L24.9626 29.4976L24.8822 29.2765L25.1059 29.197L25.1863 29.4181Z" fill="#FD8800"/>
<path d="M20.9969 33.081L20.2312 34.6877C20.1588 34.8414 20.1508 35.0173 20.2089 35.1769C20.267 35.3365 20.3865 35.4669 20.5414 35.5399L21.8504 36.1482C22.0057 36.2201 22.1835 36.2282 22.3449 36.1708C22.5063 36.1135 22.6382 35.9952 22.7116 35.842L23.4772 34.2353L20.9969 33.081ZM20.9618 35.1645L20.7381 35.244L20.6577 35.0229L20.8814 34.9434L20.9618 35.1645ZM21.5701 35.4476L21.3464 35.5271L21.266 35.306L21.4897 35.2265L21.5701 35.4476ZM21.2483 34.5633L21.0246 34.6428L20.9442 34.4217L21.1679 34.3422L21.2483 34.5633ZM22.1784 35.7307L21.9547 35.8102L21.8743 35.5891L22.098 35.5096L22.1784 35.7307ZM21.8566 34.8464L21.6329 34.9259L21.5525 34.7048L21.7762 34.6253L21.8566 34.8464ZM21.5348 33.9621L21.3111 34.0416L21.2307 33.8205L21.4543 33.741L21.5348 33.9621ZM22.4649 35.1295L22.2412 35.209L22.1608 34.9879L22.3845 34.9084L22.4649 35.1295ZM22.1431 34.2452L21.9194 34.3247L21.839 34.1036L22.0626 34.0241L22.1431 34.2452ZM22.5277 34.6078L22.4473 34.3867L22.6709 34.3072L22.7514 34.5283L22.5277 34.6078Z" fill="#FD8800"/>
<path d="M22.1604 31.1695L21.6171 32.3097L23.6831 33.2712L24.2264 32.1311L22.1604 31.1695Z" fill="#FD8800"/>
<path d="M26.5852 32.4292L25.2165 31.7922L21.7336 30.1703L20.4262 29.5628C20.3492 29.5268 20.2658 29.5062 20.1808 29.5022C20.0957 29.4981 20.0107 29.5107 19.9306 29.5392C19.8505 29.5677 19.7769 29.6115 19.7139 29.6681C19.651 29.7248 19.6 29.7932 19.5638 29.8693L18.9486 31.1604C18.9123 31.2365 18.8915 31.3189 18.8875 31.4029C18.8834 31.4869 18.8962 31.5709 18.925 31.65C18.9538 31.7292 18.9981 31.8019 19.0553 31.8642C19.1126 31.9264 19.1817 31.9768 19.2587 32.0126L20.4544 32.57L20.4556 32.5696L24.0358 34.2368L25.4178 34.879C25.4947 34.915 25.5781 34.9356 25.6631 34.9396C25.7482 34.9437 25.8332 34.9311 25.9133 34.9026C25.9934 34.8741 26.067 34.8303 26.13 34.7737C26.1929 34.717 26.2439 34.6486 26.2801 34.5725L26.8953 33.2814C26.9316 33.2053 26.9524 33.1229 26.9564 33.0389C26.9605 32.9549 26.9477 32.8709 26.9189 32.7918C26.8901 32.7126 26.8458 32.6399 26.7886 32.5776C26.7313 32.5154 26.6622 32.465 26.5852 32.4292V32.4292ZM19.594 31.4066L19.3703 31.4861L19.2898 31.265L19.5135 31.1855L19.594 31.4066ZM20.2023 31.6897L19.9786 31.7692L19.8981 31.5481L20.1218 31.4686L20.2023 31.6897ZM19.8805 30.8054L19.6568 30.8849L19.5763 30.6638L19.8 30.5843L19.8805 30.8054ZM20.8106 31.9728L20.5869 32.0523L20.5064 31.8312L20.7301 31.7517L20.8106 31.9728ZM20.4888 31.0885L20.2651 31.168L20.1846 30.9469L20.4083 30.8674L20.4888 31.0885ZM20.1669 30.2042L19.9432 30.2837L19.8628 30.0626L20.0865 29.9831L20.1669 30.2042ZM21.0794 30.6288L21.3031 30.5493L21.3835 30.7704L21.1598 30.8499L21.0794 30.6288ZM20.4711 30.3457L20.6948 30.2662L20.7752 30.4873L20.5515 30.5668L20.4711 30.3457ZM20.7929 31.23L21.0166 31.1505L21.0971 31.3716L20.8734 31.4511L20.7929 31.23ZM23.7804 33.5386C23.7508 33.5491 23.7181 33.5476 23.6896 33.5343L21.4085 32.4727C21.3799 32.4594 21.3579 32.4355 21.3473 32.4062C21.3366 32.3769 21.3382 32.3446 21.3516 32.3164L21.9962 30.9637C22.0096 30.9355 22.0338 30.9138 22.0635 30.9032C22.0931 30.8927 22.1258 30.8942 22.1543 30.9075L24.4355 31.9691C24.464 31.9824 24.486 32.0063 24.4966 32.0356C24.5073 32.0649 24.5058 32.0972 24.4923 32.1254L23.8477 33.4781C23.8343 33.5063 23.8101 33.528 23.7804 33.5386V33.5386ZM24.7645 33.8129L24.5408 33.8925L24.4604 33.6714L24.6841 33.5919L24.7645 33.8129ZM25.3728 34.096L25.1491 34.1756L25.0687 33.9545L25.2924 33.875L25.3728 34.096ZM25.051 33.2117L24.8273 33.2913L24.7469 33.0702L24.9706 32.9907L25.051 33.2117ZM25.9811 34.3791L25.7574 34.4587L25.677 34.2376L25.9007 34.1581L25.9811 34.3791ZM25.6593 33.4948L25.4356 33.5744L25.3552 33.3533L25.5788 33.2738L25.6593 33.4948ZM25.3375 32.6106L25.1138 32.6901L25.0333 32.469L25.257 32.3895L25.3375 32.6106ZM26.2676 33.778L26.0439 33.8575L25.9635 33.6364L26.1871 33.5569L26.2676 33.778ZM25.9458 32.8937L25.7221 32.9732L25.6416 32.7521L25.8653 32.6726L25.9458 32.8937ZM26.5541 33.1768L26.3304 33.2563L26.2499 33.0352L26.4736 32.9557L26.5541 33.1768Z" fill="#FD8800"/>
</svg>
