<svg width="25" height="24" viewBox="0 0 25 24" fill="none" xmlns="http://www.w3.org/2000/svg">
<rect width="24.4417" height="23.0089" fill="black" fill-opacity="0"/>
<rect width="24.4417" height="23.0089" fill="black" fill-opacity="0"/>
<rect width="24.4417" height="23.0089" fill="black" fill-opacity="0"/>
<rect width="24.4417" height="23.0089" fill="black" fill-opacity="0"/>
<rect width="17.2864" height="23.0089" fill="black" fill-opacity="0" transform="translate(7.15527)"/>
<path d="M21.26 8.88303C20.0761 8.80612 18.995 8.8574 17.5794 8.98558C16.9874 9.03686 16.7558 8.21648 16.8845 6.96028C17.0646 4.78116 17.322 3.24297 17.5022 1.98677C17.8625 -0.269254 14.6452 -0.653805 13.9503 1.08949C13.2811 2.75587 11.4279 8.6523 7.8502 10.293C7.43839 10.4725 7.18101 10.9083 7.18101 11.3698C7.18101 13.2925 7.18101 18.061 7.15527 20.0606C7.15527 20.599 7.5156 21.0605 8.03038 21.2143C10.038 21.7527 15.0313 23.0089 18.5575 23.0089C20.8482 23.0089 22.1866 22.8294 22.6757 20.7015C23.1904 18.4712 23.8339 15.1897 24.3229 12.6516C24.8377 9.93414 23.6537 9.03685 21.26 8.88303Z" fill="#564F4D"/>
<rect width="5.89415" height="12.28" fill="black" fill-opacity="0" transform="translate(0 9.75464)"/>
<path d="M5.3279 9.75464H0.566253C0.257389 9.75464 0 10.011 0 10.3186V21.4706C0 21.7782 0.257389 22.0346 0.566253 22.0346H5.3279C5.63676 22.0346 5.89415 21.7782 5.89415 21.4706V10.3186C5.89415 10.011 5.63676 9.75464 5.3279 9.75464ZM2.93421 20.2144C2.34222 20.2144 1.87893 19.7529 1.87893 19.1633C1.87893 18.5737 2.34222 18.1122 2.93421 18.1122C3.5262 18.1122 3.98949 18.5737 3.98949 19.1633C3.98949 19.7529 3.5262 20.2144 2.93421 20.2144Z" fill="#564F4D"/>
</svg>
