<svg width="24" height="24" viewBox="0 0 24 24" fill="none" xmlns="http://www.w3.org/2000/svg">
<rect width="23.5194" height="23.0089" fill="black" fill-opacity="0"/>
<rect width="23.5194" height="23.0089" fill="black" fill-opacity="0"/>
<path d="M15.612 0H7.90739C3.54738 0 0 3.47037 0 7.73573V15.2731C0 19.5385 3.54738 23.0088 7.90739 23.0088H15.612C19.972 23.0088 23.5194 19.5385 23.5194 15.2731V7.73573C23.5194 3.47037 19.972 0 15.612 0ZM18.1802 6.51124C17.4528 6.51124 16.861 5.93337 16.861 5.22327C16.861 4.51317 17.4528 3.93531 18.1802 3.93531C18.9064 3.93531 19.4968 4.51317 19.4968 5.22327C19.4968 5.93337 18.9064 6.51124 18.1802 6.51124ZM16.6934 11.5044C16.6934 14.1658 14.4801 16.331 11.7597 16.331C9.0393 16.331 6.82604 14.1658 6.82604 11.5044C6.82604 8.84307 9.0393 6.67786 11.7597 6.67786C14.4801 6.67786 16.6934 8.84307 16.6934 11.5044Z" fill="#564F4D"/>
</svg>
