<svg width="132" height="81" viewBox="0 0 132 81" fill="none" xmlns="http://www.w3.org/2000/svg">
<rect width="127.69" height="78.0338" fill="black" fill-opacity="0" transform="translate(2 1)"/>
<path d="M50.3827 23.6772C50.3827 31.0966 44.355 37.1147 36.9151 37.1147C29.4752 37.1147 23.4475 31.0966 23.4475 23.6772C23.4475 16.2579 29.4752 10.2397 36.9151 10.2397C44.355 10.2397 50.3827 16.2579 50.3827 23.6772Z" stroke="#55636F" stroke-width="2"/>
<ellipse cx="31.7068" cy="18.0952" rx="1.54321" ry="1.54" fill="#55636F"/>
<ellipse cx="43.2808" cy="18.0952" rx="1.54321" ry="1.54" fill="#55636F"/>
<path d="M30.3565 27.1426C30.3565 27.1426 30.9352 30.8001 36.5293 30.8001C42.1235 30.8001 43.088 27.5276 43.088 27.5276" stroke="#55636F" stroke-width="2"/>
<path d="M26.1127 42.9272C28.0417 41.7722 29.7778 39.4621 30.7423 39.0772C31.7068 38.6922 34.8058 40.3599 37.4938 40.4247C40.5521 40.4984 44.4383 38.6921 45.2099 39.0772C45.9815 39.4622 46.8324 41.6729 48.2963 42.9272C49.9841 44.3733 53.3118 44.8522 53.3118 45.6222C53.3118 46.3921 48.875 49.6647 48.2963 49.6647C47.7176 49.6647 45.5957 47.5472 45.2099 48.3172C44.8241 49.0872 53.6976 61.0222 53.3118 61.7922C52.926 62.5622 46.3673 60.4447 45.2099 60.4447C44.0525 60.4447 45.4028 61.7922 42.7022 61.7922C40.0016 61.7922 37.2151 60.392 33.6358 60.4447C29.3219 60.5081 24.1837 63.7172 22.8334 62.7547C21.483 61.7922 31.1281 48.3172 28.8133 48.3172C26.4985 48.3172 26.1127 49.6647 25.3411 49.6647C24.5695 49.6647 20.9043 46.1996 21.0972 45.6222C21.2901 45.0447 24.1837 44.0822 26.1127 42.9272Z" fill="#C34E59"/>
<path d="M91.6991 40.0521C87.841 40.0521 85.912 37.9346 84.5617 38.1271C83.2114 38.3196 76.4599 42.3497 76.4599 43.3246C76.4599 44.2995 79.3534 47.7397 80.125 47.9446C80.8966 48.1495 82.054 46.4046 83.5972 46.0196C85.1404 45.6346 79.3534 61.8046 80.125 62.5746C80.8966 63.3446 87.6481 64.1022 88.4197 63.3446C89.1914 62.587 90.1559 54.6821 91.6991 54.6821C93.2423 54.6821 93.2423 62.7795 93.821 63.3446C94.3997 63.9097 102.116 62.7795 102.887 61.8046C103.659 60.8297 96.5216 46.0196 97.4861 45.0571C98.4506 44.0946 101.344 46.3922 101.923 46.0196C102.502 45.647 104.623 42.182 104.623 41.5921C104.623 41.0022 99.8009 38.1271 98.8364 38.1271C97.8719 38.1271 95.5571 40.0521 91.6991 40.0521Z" fill="#C8F26E"/>
<rect width="29.7284" height="36.7301" fill="black" fill-opacity="0" transform="translate(77.6172 1)"/>
<path d="M105.552 23.2925C105.552 30.7118 99.5247 36.73 92.0848 36.73C84.6449 36.73 78.6172 30.7118 78.6172 23.2925C78.6172 15.8731 84.6449 9.85498 92.0848 9.85498C99.5247 9.85498 105.552 15.8731 105.552 23.2925Z" stroke="#55636F" stroke-width="2"/>
<ellipse cx="86.8765" cy="17.7099" rx="1.54321" ry="1.54" fill="#55636F"/>
<ellipse cx="98.4506" cy="17.7099" rx="1.54321" ry="1.54" fill="#55636F"/>
<path d="M85.5262 26.7573C85.5262 26.7573 86.1049 30.4148 91.699 30.4148C97.2932 30.4148 98.2577 27.1423 98.2577 27.1423" stroke="#55636F" stroke-width="2"/>
<path d="M98 11C98 11 100.01 12.0804 102.787 10.8466C104.971 9.87652 106.91 9.06171 107.286 6.70931C107.733 3.91624 105.609 0.713609 102.787 1.02046C101.37 1.17454 99.9349 1.52091 99.6722 2.91674C99.466 4.01203 99.8711 5.0285 100.883 5.50258C101.556 5.81763 102.114 5.81763 102.787 5.50258" stroke="#55636F" stroke-width="2"/>
<path d="M77.3765 48.5025C62.7741 47.3475 55 48.5025 55 48.5025M55 48.5025L60.0154 46M55 48.5025L60.0154 50.8125" stroke="#54CDC3" stroke-width="3"/>
<path d="M21.8382 51.3892C21.8382 51.3892 2 52.9597 2 63.168C2 73.3764 25.6903 74.8161 25.6903 74.8161M25.6903 74.8161L21.1351 72.604M25.6903 74.8161L20.383 75.8358" stroke="#54CDC3" stroke-width="3"/>
<path d="M109.852 75.4468C109.852 75.4468 129.69 73.8763 129.69 63.6679C129.69 53.4595 106 52.0199 106 52.0199M106 52.0199L110.555 54.2319M106 52.0199L111.307 51.0001" stroke="#54CDC3" stroke-width="3"/>
<path d="M32 77.5337C32 77.5337 40.1356 79.0338 66.5335 79.0338C92.9313 79.0338 104.465 75.9338 104.465 75.9338M104.465 75.9338L100.098 75M104.465 75.9338L101.491 78.4668" stroke="#54CDC3" stroke-width="3"/>
<rect width="15" height="8" fill="black" fill-opacity="0" transform="translate(29 4)"/>
<path d="M31.1347 4.09068C34.2337 3.1368 37 10.0227 37 10.0227C37 10.0227 34.4272 10.104 32.8454 10.517C31.3525 10.9068 29.1796 12 29.1796 12C29.1796 12 28.1231 5.0177 31.1347 4.09068Z" fill="#55636F"/>
<path d="M41.8653 4.09068C38.7663 3.1368 36 10.0227 36 10.0227C36 10.0227 38.5728 10.104 40.1546 10.517C41.6475 10.9068 43.8204 12 43.8204 12C43.8204 12 44.8769 5.0177 41.8653 4.09068Z" fill="#55636F"/>
<path d="M37.5 9C37.5 9.45456 37.3612 9.84684 37.1607 10.1142C36.9602 10.3814 36.7215 10.5 36.5 10.5C36.2785 10.5 36.0398 10.3814 35.8393 10.1142C35.6388 9.84684 35.5 9.45456 35.5 9C35.5 8.54544 35.6388 8.15316 35.8393 7.88579C36.0398 7.61857 36.2785 7.5 36.5 7.5C36.7215 7.5 36.9602 7.61857 37.1607 7.88579C37.3612 8.15316 37.5 8.54544 37.5 9Z" fill="#55636F" stroke="#55636F"/>
</svg>
