<svg width="58" height="56" viewBox="0 0 58 56" fill="none" xmlns="http://www.w3.org/2000/svg">
<rect width="58" height="55.7475" fill="black" fill-opacity="0"/>
<path d="M56.5927 25.4531C55.6001 25.0286 54.45 25.4888 54.0251 26.4821C52.6976 29.5863 50.7036 32.3569 48.1077 34.7079L29.6733 51.159L11.5563 34.7103C7.95899 31.459 5.49364 27.3522 4.42721 22.835C3.6747 19.6428 3.96808 17.8117 3.98079 17.7354C3.9891 17.6865 3.99546 17.6371 4.00035 17.5877C4.71814 9.66369 10.2434 3.91262 17.1368 3.91262C21.5776 3.91262 25.6325 6.31742 27.9844 10.3445C28.3331 10.9421 28.9717 11.3109 29.6635 11.3143C29.667 11.3143 29.6704 11.3143 29.6738 11.3143C30.3618 11.3143 30.9994 10.9529 31.3529 10.3616C33.7302 6.38393 38.0082 3.91262 42.5174 3.91262C47.5381 3.91262 52.0355 7.03539 54.2544 12.0621C54.6906 13.0506 55.846 13.4981 56.8337 13.0613C57.8219 12.6251 58.2693 11.4699 57.8327 10.4814C54.9786 4.01631 49.1101 0 42.5174 0C37.6014 0 32.9049 2.239 29.6978 5.98583C26.5586 2.19449 22.0333 0 17.1373 0C8.19369 0 1.04261 7.21488 0.111139 17.1666C-0.000344378 17.89 -0.219889 20.1686 0.620637 23.734C1.87043 29.0278 4.74504 33.8276 8.93104 37.6111L28.3482 55.2399C28.7208 55.5783 29.1917 55.7475 29.6626 55.7475C30.1281 55.7475 30.5935 55.5822 30.9647 55.2511L50.7232 37.6184C53.7498 34.8766 56.0714 31.6477 57.6219 28.0217C58.0463 27.0279 57.5857 25.8776 56.5927 25.4531Z" fill="#33B427"/>
</svg>
