<svg width="51" height="53" viewBox="0 0 51 53" fill="none" xmlns="http://www.w3.org/2000/svg">
<rect width="50.3268" height="52.543" fill="black" fill-opacity="0"/>
<path d="M48.8038 42.0507L46.447 39.5471C45.7062 38.7606 44.4692 38.723 43.6824 39.4639C42.8962 40.2049 42.8585 41.4427 43.5993 42.2292L45.9571 44.7337C46.2964 45.0937 46.7556 45.8053 46.0422 46.5106C45.8813 46.6636 44.4506 48.0086 44.1792 48.2551C43.1949 49.0039 42.6546 48.4292 42.3617 48.1172L26.5859 31.3584C26.2162 30.9657 25.7008 30.7432 25.162 30.7432C24.6232 30.7432 24.1073 30.9657 23.7376 31.3584L7.96177 48.1191C7.66937 48.4302 7.12809 49.0054 6.14527 48.2556C5.86803 48.0037 4.39234 46.6157 4.30433 46.5331C4.10189 46.333 3.48678 45.7256 4.36789 44.7333L20.509 27.5842C21.218 26.831 21.218 25.6558 20.509 24.9021L4.35567 7.74038C4.08772 7.45573 3.54546 6.71136 4.26325 5.97481C4.38158 5.86036 5.8602 4.46649 6.12375 4.22244C7.10364 3.45312 7.90993 4.30999 8.21505 4.63424L23.7376 21.1274C24.1073 21.5201 24.6227 21.7427 25.162 21.7427C25.7013 21.7427 26.2167 21.5201 26.5863 21.1274L42.1089 4.63473C42.4146 4.31047 43.2189 3.4585 44.2027 4.22391C44.4594 4.46209 45.829 5.75277 46.0451 5.95916C46.5605 6.50203 46.5292 7.10751 45.9683 7.74087L29.815 24.9021C29.106 25.6558 29.1055 26.8306 29.815 27.5842L34.553 32.6188C35.2933 33.4052 36.5304 33.4429 37.3176 32.7024C38.1039 31.962 38.1415 30.7236 37.4012 29.9372L33.9252 26.2437L48.8156 10.4244C50.2081 8.94693 51.3601 5.80607 48.818 3.19929C48.8048 3.1856 46.871 1.35058 46.7125 1.22195C44.8114 -0.334298 41.7706 -0.712356 39.2612 1.95312L25.162 16.9326L11.0628 1.95214C8.55341 -0.713334 5.51157 -0.335277 3.6188 1.21657C3.45157 1.35253 1.51186 3.19342 1.4967 3.20907C-1.03563 5.80607 0.116851 8.94644 1.50844 10.4235L16.3993 26.2432L1.52164 42.0502C0.102671 43.5556 -1.05959 46.7331 1.57396 49.334C1.59107 49.3506 3.47798 51.1348 3.69117 51.303C5.45485 52.6896 8.37836 53.3885 10.8119 50.7998L25.162 35.5533L39.5121 50.7983C40.6993 52.0621 42.0028 52.5429 43.2316 52.5429C44.5225 52.5429 45.7307 52.0122 46.6348 51.3011C46.8529 51.1294 48.7476 49.336 48.7676 49.3164C51.3836 46.7326 50.2218 43.5556 48.8038 42.0507Z" fill="#FF0707"/>
</svg>
