<svg width="99" height="99" viewBox="0 0 99 99" fill="none" xmlns="http://www.w3.org/2000/svg">
<rect width="69.4973" height="69.4634" fill="black" fill-opacity="0" transform="translate(0 49.1421) rotate(-45)"/>
<path d="M44.8727 42.6582C43.8973 42.1975 42.821 42 41.6102 42C40.3994 42 39.2559 42.2962 38.2132 42.8557C37.1706 43.4152 36.3297 44.2051 35.7243 45.1924C35.4553 45.6203 35.2535 46.081 35.1189 46.5418H33.6054C33.2691 46.5418 33 46.8051 33 47.1342C33 47.4633 33.2691 47.7266 33.6054 47.7266H34.8835C34.8835 47.957 34.8498 48.1873 34.8498 48.4177C34.8498 48.5823 34.8498 48.7139 34.8498 48.8785H33.6054C33.2691 48.8785 33 49.1418 33 49.4709C33 49.8 33.2691 50.0633 33.6054 50.0633H35.018C35.2871 51.2481 35.8589 52.2684 36.767 53.124C38.045 54.3747 39.6931 55 41.7111 55C42.8547 55 43.9309 54.8025 44.8727 54.3747C45.6126 54.0456 46.2517 53.6177 46.7898 53.0582C46.9243 52.8937 47.0252 52.6962 46.9916 52.4987C46.9916 52.3013 46.8571 52.1038 46.6889 51.9722C46.5544 51.8734 46.3862 51.8076 46.2517 51.8076C46.0499 51.8076 45.848 51.8734 45.7135 52.038C44.6372 53.0911 43.3255 53.6177 41.7784 53.6177C40.2312 53.6177 38.9532 53.124 37.9441 52.1696C37.3051 51.5772 36.8679 50.8861 36.6324 50.0962H42.8883C43.2246 50.0962 43.4937 49.8329 43.4937 49.5038C43.4937 49.1747 43.2246 48.9114 42.8883 48.9114H36.4306C36.4306 48.8127 36.4306 48.681 36.4306 48.5823C36.4306 48.2861 36.4643 48.0228 36.4979 47.7595H42.8883C43.2246 47.7595 43.4937 47.4962 43.4937 47.1671C43.4937 46.838 43.2246 46.5747 42.8883 46.5747H36.8342C37.1033 45.9823 37.4733 45.4228 37.9778 44.962C39.0204 43.9747 40.2649 43.481 41.7111 43.481C43.2919 43.481 44.6372 44.0405 45.7135 45.1266C45.848 45.2582 46.0499 45.357 46.2517 45.357C46.4198 45.357 46.588 45.2911 46.6889 45.1924C46.8571 45.0608 46.958 44.8962 46.9916 44.6987C47.0252 44.5013 46.958 44.3038 46.7898 44.1392C46.2853 43.481 45.6462 43.0203 44.8727 42.6582Z" fill="#564F4D"/>
<path d="M10.241 38.9068C10.1346 39.0611 10.0782 39.2444 10.0794 39.4319L10.0794 58.8215C10.0814 58.9426 10.1074 59.0621 10.156 59.173C10.2045 59.284 10.2746 59.3842 10.3622 59.4678L17.4717 66.5773C17.5561 66.6642 17.657 66.7334 17.7684 66.7809C17.8798 66.8284 17.9996 66.8534 18.1207 66.8542C18.2418 66.8551 18.3619 66.8319 18.474 66.7859C18.5861 66.7399 18.6879 66.6722 18.7735 66.5865C18.8592 66.5008 18.927 66.399 18.9729 66.287C19.0189 66.1749 19.0421 66.0548 19.0413 65.9337C19.0404 65.8125 19.0155 65.6928 18.9679 65.5814C18.9204 65.4699 18.8512 65.3691 18.7643 65.2847L11.9174 58.4377L11.9174 39.8157L22.3797 29.3534L69.8033 29.3534C70.0471 29.356 70.2819 29.2618 70.4561 29.0913C70.6304 28.9209 70.7298 28.6882 70.7324 28.4445C70.7351 28.2007 70.6408 27.9659 70.4704 27.7917C70.2999 27.6174 70.0672 27.518 69.8235 27.5154L21.9959 27.5154C21.8748 27.5174 21.7553 27.5434 21.6444 27.5919C21.5334 27.6405 21.4332 27.7106 21.3496 27.7982L10.3622 38.7856C10.3181 38.8221 10.2775 38.8627 10.241 38.9068ZM21.2486 69.2232C21.1374 69.3584 21.0674 69.5226 21.0468 69.6965C21.0262 69.8703 21.056 70.0464 21.1326 70.2038C21.2091 70.3612 21.3293 70.4933 21.4788 70.5844C21.6282 70.6756 21.8007 70.7218 21.9757 70.7178L76.2665 70.7178C76.3891 70.7198 76.5108 70.6971 76.6244 70.6512C76.7381 70.6052 76.8413 70.5368 76.928 70.4502C77.0147 70.3635 77.083 70.2602 77.129 70.1466C77.175 70.033 77.1976 69.9113 77.1956 69.7887V28.4243C77.1943 28.3036 77.1692 28.1844 77.1218 28.0734C77.0744 27.9624 77.0056 27.8618 76.9193 27.7774C76.8331 27.693 76.731 27.6264 76.619 27.5815C76.507 27.5365 76.3872 27.5141 76.2666 27.5154C76.1459 27.5167 76.0266 27.5418 75.9156 27.5892C75.8046 27.6366 75.7041 27.7054 75.6197 27.7917C75.5353 27.878 75.4687 27.98 75.4237 28.092C75.3788 28.204 75.3563 28.3238 75.3576 28.4444L75.3576 68.8798L21.9959 68.8798C21.8532 68.8747 21.7113 68.9031 21.5815 68.9627C21.4517 69.0224 21.3377 69.1115 21.2486 69.2232Z" fill="#564F4D"/>
<path d="M18.118 46.5414C16.6946 47.9649 16.6946 50.2886 18.118 51.712C19.5414 53.1354 21.8651 53.1354 23.2885 51.712C24.712 50.2886 24.712 47.9649 23.2885 46.5414C21.8651 45.118 19.5414 45.118 18.118 46.5414ZM18.8566 47.2801C19.8809 46.2558 21.5257 46.2558 22.5499 47.2801C23.5741 48.3043 23.5741 49.9491 22.5499 50.9733C21.5257 51.9976 19.8809 51.9976 18.8566 50.9733C17.8324 49.9491 17.8324 48.3043 18.8566 47.2801Z" fill="#564F4D"/>
</svg>
