<svg width="86" height="87" viewBox="0 0 86 87" fill="none" xmlns="http://www.w3.org/2000/svg">
<rect width="60.55" height="60.5204" fill="black" fill-opacity="0" transform="translate(0 43.571) rotate(-45)"/>
<path d="M39.0956 37.9218C38.2458 37.5203 37.3081 37.3483 36.2532 37.3483C35.1982 37.3483 34.2019 37.6063 33.2935 38.0938C32.3851 38.5813 31.6525 39.2694 31.125 40.1297C30.8906 40.5024 30.7148 40.9039 30.5976 41.3053H29.2789C28.9859 41.3053 28.7515 41.5347 28.7515 41.8215C28.7515 42.1082 28.9859 42.3376 29.2789 42.3376H30.3925C30.3925 42.5383 30.3632 42.739 30.3632 42.9397C30.3632 43.0831 30.3632 43.1978 30.3632 43.3412H29.2789C28.9859 43.3412 28.7515 43.5706 28.7515 43.8573C28.7515 44.1441 28.9859 44.3735 29.2789 44.3735H30.5097C30.7441 45.4057 31.2423 46.2946 32.0335 47.0402C33.147 48.1298 34.5829 48.6746 36.3411 48.6746C37.3374 48.6746 38.2751 48.5026 39.0956 48.1298C39.7403 47.843 40.297 47.4703 40.7659 46.9828C40.8831 46.8394 40.971 46.6674 40.9417 46.4954C40.9417 46.3233 40.8245 46.1513 40.678 46.0366C40.5608 45.9505 40.4143 45.8932 40.297 45.8932C40.1212 45.8932 39.9454 45.9505 39.8282 46.0939C38.8905 47.0115 37.7476 47.4703 36.3997 47.4703C35.0517 47.4703 33.9382 47.0402 33.0591 46.2086C32.5023 45.6925 32.1214 45.0903 31.9162 44.4021H37.3667C37.6597 44.4021 37.8942 44.1727 37.8942 43.886C37.8942 43.5993 37.6597 43.3699 37.3667 43.3699H31.7404C31.7404 43.2838 31.7404 43.1691 31.7404 43.0831C31.7404 42.8251 31.7697 42.5957 31.799 42.3663H37.3667C37.6597 42.3663 37.8942 42.1369 37.8942 41.8501C37.8942 41.5634 37.6597 41.334 37.3667 41.334H32.0921C32.3265 40.8179 32.6488 40.3304 33.0884 39.929C33.9968 39.0687 35.081 38.6386 36.3411 38.6386C37.7183 38.6386 38.8905 39.1261 39.8282 40.0723C39.9454 40.187 40.1212 40.273 40.297 40.273C40.4436 40.273 40.5901 40.2157 40.678 40.1297C40.8245 40.015 40.9124 39.8716 40.9417 39.6996C40.971 39.5275 40.9124 39.3555 40.7659 39.2121C40.3264 38.6386 39.7696 38.2372 39.0956 37.9218Z" fill="#564F4D"/>
<path d="M8.92254 34.6535C8.82981 34.7879 8.78067 34.9477 8.78177 35.111L8.78177 52.0043C8.78348 52.1098 8.80616 52.2139 8.84845 52.3106C8.89074 52.4072 8.95181 52.4945 9.02813 52.5674L15.2223 58.7616C15.2959 58.8373 15.3838 58.8975 15.4808 58.939C15.5779 58.9804 15.6822 59.0021 15.7878 59.0029C15.8933 59.0036 15.9979 58.9834 16.0956 58.9433C16.1932 58.9033 16.2819 58.8442 16.3566 58.7696C16.4312 58.695 16.4903 58.6063 16.5303 58.5086C16.5703 58.411 16.5906 58.3063 16.5898 58.2008C16.5891 58.0953 16.5674 57.9909 16.5259 57.8939C16.4845 57.7968 16.4242 57.7089 16.3486 57.6354L10.3831 51.6699L10.3831 35.4453L19.4984 26.33L60.8166 26.33C61.029 26.3323 61.2336 26.2502 61.3854 26.1017C61.5372 25.9532 61.6238 25.7505 61.6261 25.5381C61.6284 25.3258 61.5463 25.1211 61.3978 24.9693C61.2493 24.8175 61.0465 24.7309 60.8342 24.7286L19.1641 24.7287C19.0586 24.7304 18.9545 24.753 18.8578 24.7953C18.7611 24.8376 18.6739 24.8987 18.601 24.975L9.02813 34.5479C8.9897 34.5797 8.95435 34.615 8.92254 34.6535ZM18.513 61.0668C18.4161 61.1846 18.3551 61.3277 18.3372 61.4792C18.3192 61.6306 18.3452 61.784 18.4119 61.9212C18.4786 62.0583 18.5833 62.1734 18.7135 62.2528C18.8437 62.3322 18.994 62.3725 19.1465 62.369L66.4477 62.369C66.5545 62.3708 66.6605 62.351 66.7595 62.311C66.8585 62.2709 66.9485 62.2114 67.024 62.1358C67.0995 62.0603 67.1591 61.9704 67.1991 61.8714C67.2392 61.7724 67.2589 61.6663 67.2572 61.5595V25.5205C67.256 25.4154 67.2342 25.3115 67.1929 25.2148C67.1516 25.1181 67.0916 25.0305 67.0164 24.9569C66.9413 24.8834 66.8524 24.8254 66.7548 24.7862C66.6572 24.747 66.5529 24.7275 66.4477 24.7286C66.3426 24.7298 66.2387 24.7516 66.1419 24.7929C66.0452 24.8342 65.9577 24.8942 65.8841 24.9694C65.8106 25.0445 65.7526 25.1334 65.7134 25.231C65.6742 25.3286 65.6546 25.4329 65.6558 25.5381L65.6558 60.7677L19.1641 60.7677C19.0397 60.7632 18.9161 60.7879 18.803 60.8399C18.69 60.8918 18.5906 60.9696 18.513 61.0668Z" fill="#564F4D"/>
<path d="M15.7854 41.3049C14.5452 42.5451 14.5452 44.5696 15.7854 45.8098C17.0256 47.05 19.0501 47.05 20.2903 45.8098C21.5304 44.5696 21.5305 42.5451 20.2903 41.3049C19.0501 40.0648 17.0256 40.0648 15.7854 41.3049ZM16.429 41.9485C17.3213 41.0561 18.7543 41.0561 19.6467 41.9485C20.5391 42.8409 20.5391 44.2739 19.6467 45.1663C18.7543 46.0586 17.3213 46.0586 16.429 45.1663C15.5366 44.2739 15.5366 42.8409 16.429 41.9485Z" fill="#564F4D"/>
</svg>
