<svg xmlns="http://www.w3.org/2000/svg" xmlns:xlink="http://www.w3.org/1999/xlink" version="1.1" x="0px" y="0px" viewBox="0 0 100 125" enable-background="new 0 0 100 100" xml:space="preserve"><g><path fill="#000000" d="M80.67,90.55v1.49c0,2.45-2,4.45-4.449,4.45H24.76c-2.45,0-4.45-2-4.45-4.45V90.7   c-1.6-0.64-2.55-2.2-2.87-3.841L11.23,54.87c-1.95,0-3.11-1.83-3.11-3.62v-6.36c0-1.74,1.15-3.62,3.05-3.62h15.49L44.29,8.3   c0.39-0.73,1.29-1,2.02-0.62c0.73,0.39,1,1.29,0.62,2.02L30.05,41.26h41.33L54.5,9.7c-0.391-0.73-0.109-1.63,0.62-2.02   c0.729-0.39,1.63-0.11,2.021,0.62L74.77,41.27h15.49c1.91,0,3.051,1.9,3.051,3.62v6.36c0,1.74-1.15,3.62-3.051,3.62h-0.84   l-6.21,31.989c-0.22,1.121-0.71,2.16-1.47,2.91c-0.32,0.32-0.68,0.58-1.08,0.791L80.67,90.55z M63.1,57.74c0-0.83,0.67-1.5,1.5-1.5   s1.5,0.67,1.5,1.5V81.8c0,0.83-0.67,1.5-1.5,1.5s-1.5-0.67-1.5-1.5V57.74z M53.471,57.74c0-0.83,0.67-1.5,1.5-1.5   c0.829,0,1.5,0.67,1.5,1.5V81.8c0,0.83-0.671,1.5-1.5,1.5c-0.83,0-1.5-0.67-1.5-1.5V57.74z M43.99,57.74c0-0.83,0.67-1.5,1.5-1.5   c0.83,0,1.5,0.67,1.5,1.5V81.8c0,0.83-0.67,1.5-1.5,1.5c-0.83,0-1.5-0.67-1.5-1.5V57.74z M34.56,57.74c0-0.83,0.67-1.5,1.5-1.5   s1.5,0.67,1.5,1.5V81.8c0,0.83-0.67,1.5-1.5,1.5s-1.5-0.67-1.5-1.5V57.74z M77.04,45.5c1.13,0.3,1.97,1.33,1.97,2.55   c0,1.46-1.18,2.64-2.64,2.64s-2.64-1.18-2.64-2.64c0-0.56,0.17-1.08,0.47-1.51l-1.229-2.3H28.44l-1.22,2.29   c0.3,0.43,0.48,0.95,0.48,1.51c0,1.46-1.18,2.64-2.64,2.64s-2.64-1.18-2.64-2.64c0-1.22,0.83-2.25,1.96-2.55l0.67-1.25H11.77   c-0.59,0-0.64,0.13-0.66,0.62v6.361c0,0.579,0.03,0.619,0.42,0.619h78.25c0.48,0,0.531,0.12,0.531-0.619V44.86   c0-0.81-0.041-0.62-0.871-0.62H76.37l0.67,1.25V45.5z M14.28,54.85l6.11,31.43c0.14,0.74,0.58,1.701,1.46,1.711l6.93,0.05   c0,1-0.01,1.989-0.01,2.989c-1.82-0.01-3.64-0.02-5.46-0.039v1.039c0,0.791,0.65,1.451,1.45,1.451h51.461   c0.789,0,1.449-0.65,1.449-1.451V90.99c-12.949,0.1-25.91,0.13-38.86,0.09v-2.99c13.331,0.04,26.67,0.02,40-0.1   c0.319,0,0.6-0.141,0.819-0.35c0.32-0.32,0.54-0.811,0.649-1.351l6.111-31.431H14.3L14.28,54.85z"/></g><text x="0" y="115" fill="#000000" font-size="5px" font-weight="bold" font-family="'Helvetica Neue', Helvetica, Arial-Unicode, Arial, Sans-serif"></text><text x="0" y="120" fill="#000000" font-size="5px" font-weight="bold" font-family="'Helvetica Neue', Helvetica, Arial-Unicode, Arial, Sans-serif"></text></svg>