<svg width="25" height="19" viewBox="0 0 25 19" fill="none" xmlns="http://www.w3.org/2000/svg">
<rect width="24.4417" height="18.8673" fill="black" fill-opacity="0"/>
<rect width="24.4417" height="18.8673" fill="black" fill-opacity="0"/>
<rect width="24.4417" height="18.8673" fill="black" fill-opacity="0"/>
<path d="M23.7576 3.15128C22.9949 3.51489 22.1518 3.79769 21.3088 3.9593C20.4657 2.58566 19.0606 1.61604 17.4548 1.37363C17.1737 1.33323 16.8927 1.29283 16.6117 1.29283C13.8818 1.29283 11.5935 3.27248 11.192 5.97935C11.1519 6.26215 11.1117 6.58536 11.1117 6.86817C7.98036 5.69654 5.41103 3.35328 3.96578 0.282807C3.88549 0.121203 3.72491 0.040401 3.56433 0C3.40374 0 3.24316 0.0808019 3.12272 0.202005C2.19937 1.61604 1.9585 3.31288 2.44024 4.88852C2.35995 4.88852 2.27966 4.84812 2.23952 4.88852C2.03879 4.92892 1.91835 5.05012 1.8782 5.25213C1.4366 6.94897 1.8782 8.76701 2.92199 10.1002C2.80156 10.1002 2.72126 10.1406 2.64097 10.2214C2.48039 10.3427 2.44024 10.5447 2.48039 10.7063C2.92199 12.4435 4.16651 13.8575 5.77234 14.4635C4.08622 15.0696 2.31981 15.312 0.513248 15.1908C0.312519 15.1908 0.11179 15.312 0.0314987 15.514C-0.0487928 15.716 0.0314988 15.918 0.192082 16.0796C1.99864 17.4532 4.12637 18.342 6.37453 18.7057C7.09715 18.8269 7.77963 18.8673 8.50225 18.8673C14.6847 18.8673 20.1445 14.706 21.7905 8.72661C21.9109 8.4034 21.9912 8.03979 22.0314 7.71659C22.0314 7.63578 22.0715 7.55498 22.0715 7.47418C22.1117 7.35298 22.1117 7.23178 22.1518 7.11057C23.0752 6.14095 23.8379 5.05012 24.4 3.83809C24.4803 3.67649 24.4401 3.43408 24.3197 3.31288C24.1591 3.11088 23.9182 3.07048 23.7576 3.15128ZM17.4949 5.89854C16.973 5.81774 16.6117 5.33293 16.692 4.80772C16.7723 4.2825 17.254 3.91889 17.7759 3.9997C18.2978 4.0805 18.6591 4.56531 18.5788 5.09052C18.4985 5.61574 18.0168 5.97934 17.4949 5.89854Z" fill="#564F4D"/>
</svg>
